G04 #@! TF.FileFunction,Copper,L2,Bot,Signal*
%FSLAX46Y46*%
G04 Gerber Fmt 4.6, Leading zero omitted, Abs format (unit mm)*
G04 Created by KiCad (PCBNEW 4.0.5+dfsg1-4) date Fri Jun 28 09:21:59 2019*
%MOMM*%
%LPD*%
G01*
G04 APERTURE LIST*
%ADD10C,0.100000*%
%ADD11R,2.000000X2.000000*%
%ADD12O,2.000000X2.000000*%
%ADD13C,2.200000*%
%ADD14C,1.879600*%
%ADD15C,0.250000*%
%ADD16C,0.254000*%
G04 APERTURE END LIST*
D10*
D11*
X54610000Y-46990000D03*
D12*
X54610000Y-41910000D03*
D11*
X54610000Y-69850000D03*
D12*
X54610000Y-64770000D03*
D11*
X54610000Y-92710000D03*
D12*
X54610000Y-87630000D03*
D11*
X77470000Y-46990000D03*
D12*
X77470000Y-41910000D03*
D11*
X77470000Y-69850000D03*
D12*
X77470000Y-64770000D03*
D11*
X77470000Y-92710000D03*
D12*
X77470000Y-87630000D03*
D11*
X100330000Y-46990000D03*
D12*
X100330000Y-41910000D03*
D11*
X100330000Y-69850000D03*
D12*
X100330000Y-64770000D03*
D11*
X100330000Y-92710000D03*
D12*
X100330000Y-87630000D03*
D11*
X123190000Y-46990000D03*
D12*
X123190000Y-41910000D03*
D11*
X123190000Y-69850000D03*
D12*
X123190000Y-64770000D03*
D11*
X123190000Y-92710000D03*
D12*
X123190000Y-87630000D03*
D11*
X38100000Y-76200000D03*
D12*
X43180000Y-76200000D03*
D13*
X68580000Y-41910000D03*
X62230000Y-44450000D03*
X68580000Y-64770000D03*
X62230000Y-67310000D03*
X68580000Y-87630000D03*
X62230000Y-90170000D03*
X91440000Y-41910000D03*
X85090000Y-44450000D03*
X91440000Y-64770000D03*
X85090000Y-67310000D03*
X91440000Y-87630000D03*
X85090000Y-90170000D03*
X114300000Y-41910000D03*
X107950000Y-44450000D03*
X114300000Y-64770000D03*
X107950000Y-67310000D03*
X114300000Y-87630000D03*
X107950000Y-90170000D03*
X137160000Y-41910000D03*
X130810000Y-44450000D03*
X137160000Y-64770000D03*
X130810000Y-67310000D03*
X137160000Y-87630000D03*
X130810000Y-90170000D03*
X43180000Y-87630000D03*
X36830000Y-90170000D03*
D14*
X34290000Y-39370000D03*
X34290000Y-41910000D03*
X34290000Y-44450000D03*
X34290000Y-46990000D03*
X34290000Y-49530000D03*
X34290000Y-52070000D03*
X34290000Y-54610000D03*
X34290000Y-57150000D03*
X34290000Y-59690000D03*
X34290000Y-62230000D03*
X34290000Y-64770000D03*
X34290000Y-67310000D03*
X49530000Y-67310000D03*
X49530000Y-64770000D03*
X49530000Y-62230000D03*
X49530000Y-59690000D03*
X49530000Y-57150000D03*
X49530000Y-54610000D03*
X49530000Y-52070000D03*
X49530000Y-49530000D03*
X49530000Y-46990000D03*
X49530000Y-44450000D03*
X49530000Y-41910000D03*
X49530000Y-39370000D03*
D15*
X38100000Y-66040000D02*
X49530000Y-54610000D01*
X38100000Y-76200000D02*
X38100000Y-66040000D01*
X53284700Y-67199400D02*
X54610000Y-68524700D01*
X53284700Y-55824700D02*
X53284700Y-67199400D01*
X49530000Y-52070000D02*
X53284700Y-55824700D01*
X54610000Y-69850000D02*
X54610000Y-68524700D01*
X54610000Y-92710000D02*
X54610000Y-91384700D01*
X77470000Y-92710000D02*
X76144700Y-92710000D01*
X73791100Y-90356400D02*
X76144700Y-92710000D01*
X64373100Y-90356400D02*
X73791100Y-90356400D01*
X63105700Y-91623800D02*
X64373100Y-90356400D01*
X57499700Y-91623800D02*
X63105700Y-91623800D01*
X55935300Y-90059400D02*
X57499700Y-91623800D01*
X55935300Y-55935300D02*
X55935300Y-90059400D01*
X49530000Y-49530000D02*
X55935300Y-55935300D01*
X55935300Y-90059400D02*
X54610000Y-91384700D01*
X137160000Y-64770000D02*
X123190000Y-64770000D01*
X43180000Y-87630000D02*
X43180000Y-76200000D01*
X62230000Y-90170000D02*
X62230000Y-67310000D01*
X52753800Y-45640600D02*
X60776300Y-45640600D01*
X52674400Y-45720000D02*
X52753800Y-45640600D01*
X38100000Y-45720000D02*
X52674400Y-45720000D01*
X34290000Y-49530000D02*
X38100000Y-45720000D01*
X61966900Y-44450000D02*
X60776300Y-45640600D01*
X62230000Y-44450000D02*
X61966900Y-44450000D01*
X60776300Y-65856300D02*
X62230000Y-67310000D01*
X60776300Y-45640600D02*
X60776300Y-65856300D01*
X85090000Y-44450000D02*
X85090000Y-67310000D01*
X85090000Y-67310000D02*
X85090000Y-90170000D01*
X107950000Y-90170000D02*
X107950000Y-67310000D01*
X107950000Y-44450000D02*
X107950000Y-67310000D01*
X130810000Y-90170000D02*
X130810000Y-67310000D01*
X36774600Y-90114600D02*
X36830000Y-90170000D01*
X36774600Y-62174600D02*
X36774600Y-90114600D01*
X34290000Y-59690000D02*
X36774600Y-62174600D01*
X34290000Y-46990000D02*
X34290000Y-44450000D01*
D16*
G36*
X60016300Y-65856300D02*
X60074152Y-66147139D01*
X60238899Y-66393701D01*
X60587216Y-66742018D01*
X60495301Y-66963373D01*
X60494699Y-67653599D01*
X60758281Y-68291515D01*
X61245918Y-68780004D01*
X61470000Y-68873051D01*
X61470000Y-88606753D01*
X61248485Y-88698281D01*
X60759996Y-89185918D01*
X60495301Y-89823373D01*
X60494699Y-90513599D01*
X60639399Y-90863800D01*
X57814502Y-90863800D01*
X56695300Y-89744598D01*
X56695300Y-55935300D01*
X56637448Y-55644461D01*
X56472701Y-55397899D01*
X51050216Y-49975414D01*
X51104526Y-49844621D01*
X51105073Y-49218127D01*
X50865829Y-48639113D01*
X50424885Y-48197399D01*
X50459363Y-48098968D01*
X49530000Y-47169605D01*
X48600637Y-48098968D01*
X48635313Y-48197964D01*
X48195728Y-48636783D01*
X47955474Y-49215379D01*
X47954927Y-49841873D01*
X48194171Y-50420887D01*
X48572896Y-50800273D01*
X48195728Y-51176783D01*
X47955474Y-51755379D01*
X47954927Y-52381873D01*
X48194171Y-52960887D01*
X48572896Y-53340273D01*
X48195728Y-53716783D01*
X47955474Y-54295379D01*
X47954927Y-54921873D01*
X48010011Y-55055187D01*
X37562599Y-65502599D01*
X37534600Y-65544503D01*
X37534600Y-62174600D01*
X37476748Y-61883761D01*
X37312001Y-61637199D01*
X35810216Y-60135414D01*
X35864526Y-60004621D01*
X35865073Y-59378127D01*
X35625829Y-58799113D01*
X35247104Y-58419727D01*
X35624272Y-58043217D01*
X35864526Y-57464621D01*
X35865073Y-56838127D01*
X35625829Y-56259113D01*
X35247104Y-55879727D01*
X35624272Y-55503217D01*
X35864526Y-54924621D01*
X35865073Y-54298127D01*
X35625829Y-53719113D01*
X35247104Y-53339727D01*
X35624272Y-52963217D01*
X35864526Y-52384621D01*
X35865073Y-51758127D01*
X35625829Y-51179113D01*
X35247104Y-50799727D01*
X35624272Y-50423217D01*
X35864526Y-49844621D01*
X35865073Y-49218127D01*
X35809989Y-49084813D01*
X38414802Y-46480000D01*
X48039624Y-46480000D01*
X47943955Y-46739833D01*
X47968951Y-47365828D01*
X48160420Y-47828077D01*
X48421032Y-47919363D01*
X49350395Y-46990000D01*
X49336253Y-46975858D01*
X49515858Y-46796253D01*
X49530000Y-46810395D01*
X49544143Y-46796253D01*
X49723748Y-46975858D01*
X49709605Y-46990000D01*
X50638968Y-47919363D01*
X50899580Y-47828077D01*
X51116045Y-47240167D01*
X51091049Y-46614172D01*
X51035473Y-46480000D01*
X52674400Y-46480000D01*
X52962560Y-46422681D01*
X52962560Y-47990000D01*
X53006838Y-48225317D01*
X53145910Y-48441441D01*
X53358110Y-48586431D01*
X53610000Y-48637440D01*
X55610000Y-48637440D01*
X55845317Y-48593162D01*
X56061441Y-48454090D01*
X56206431Y-48241890D01*
X56257440Y-47990000D01*
X56257440Y-46400600D01*
X60016300Y-46400600D01*
X60016300Y-65856300D01*
X60016300Y-65856300D01*
G37*
X60016300Y-65856300D02*
X60074152Y-66147139D01*
X60238899Y-66393701D01*
X60587216Y-66742018D01*
X60495301Y-66963373D01*
X60494699Y-67653599D01*
X60758281Y-68291515D01*
X61245918Y-68780004D01*
X61470000Y-68873051D01*
X61470000Y-88606753D01*
X61248485Y-88698281D01*
X60759996Y-89185918D01*
X60495301Y-89823373D01*
X60494699Y-90513599D01*
X60639399Y-90863800D01*
X57814502Y-90863800D01*
X56695300Y-89744598D01*
X56695300Y-55935300D01*
X56637448Y-55644461D01*
X56472701Y-55397899D01*
X51050216Y-49975414D01*
X51104526Y-49844621D01*
X51105073Y-49218127D01*
X50865829Y-48639113D01*
X50424885Y-48197399D01*
X50459363Y-48098968D01*
X49530000Y-47169605D01*
X48600637Y-48098968D01*
X48635313Y-48197964D01*
X48195728Y-48636783D01*
X47955474Y-49215379D01*
X47954927Y-49841873D01*
X48194171Y-50420887D01*
X48572896Y-50800273D01*
X48195728Y-51176783D01*
X47955474Y-51755379D01*
X47954927Y-52381873D01*
X48194171Y-52960887D01*
X48572896Y-53340273D01*
X48195728Y-53716783D01*
X47955474Y-54295379D01*
X47954927Y-54921873D01*
X48010011Y-55055187D01*
X37562599Y-65502599D01*
X37534600Y-65544503D01*
X37534600Y-62174600D01*
X37476748Y-61883761D01*
X37312001Y-61637199D01*
X35810216Y-60135414D01*
X35864526Y-60004621D01*
X35865073Y-59378127D01*
X35625829Y-58799113D01*
X35247104Y-58419727D01*
X35624272Y-58043217D01*
X35864526Y-57464621D01*
X35865073Y-56838127D01*
X35625829Y-56259113D01*
X35247104Y-55879727D01*
X35624272Y-55503217D01*
X35864526Y-54924621D01*
X35865073Y-54298127D01*
X35625829Y-53719113D01*
X35247104Y-53339727D01*
X35624272Y-52963217D01*
X35864526Y-52384621D01*
X35865073Y-51758127D01*
X35625829Y-51179113D01*
X35247104Y-50799727D01*
X35624272Y-50423217D01*
X35864526Y-49844621D01*
X35865073Y-49218127D01*
X35809989Y-49084813D01*
X38414802Y-46480000D01*
X48039624Y-46480000D01*
X47943955Y-46739833D01*
X47968951Y-47365828D01*
X48160420Y-47828077D01*
X48421032Y-47919363D01*
X49350395Y-46990000D01*
X49336253Y-46975858D01*
X49515858Y-46796253D01*
X49530000Y-46810395D01*
X49544143Y-46796253D01*
X49723748Y-46975858D01*
X49709605Y-46990000D01*
X50638968Y-47919363D01*
X50899580Y-47828077D01*
X51116045Y-47240167D01*
X51091049Y-46614172D01*
X51035473Y-46480000D01*
X52674400Y-46480000D01*
X52962560Y-46422681D01*
X52962560Y-47990000D01*
X53006838Y-48225317D01*
X53145910Y-48441441D01*
X53358110Y-48586431D01*
X53610000Y-48637440D01*
X55610000Y-48637440D01*
X55845317Y-48593162D01*
X56061441Y-48454090D01*
X56206431Y-48241890D01*
X56257440Y-47990000D01*
X56257440Y-46400600D01*
X60016300Y-46400600D01*
X60016300Y-65856300D01*
M02*
