G04 #@! TF.FileFunction,Legend,Top*
%FSLAX46Y46*%
G04 Gerber Fmt 4.6, Leading zero omitted, Abs format (unit mm)*
G04 Created by KiCad (PCBNEW 4.0.5+dfsg1-4) date Fri Jun 28 09:21:59 2019*
%MOMM*%
%LPD*%
G01*
G04 APERTURE LIST*
%ADD10C,0.100000*%
%ADD11C,0.120000*%
%ADD12C,0.150000*%
%ADD13C,0.127000*%
G04 APERTURE END LIST*
D10*
D11*
X53430000Y-46110000D02*
X53250000Y-46110000D01*
X53250000Y-46110000D02*
X53250000Y-42790000D01*
X53250000Y-42790000D02*
X53430000Y-42790000D01*
X55790000Y-46110000D02*
X55970000Y-46110000D01*
X55970000Y-46110000D02*
X55970000Y-42790000D01*
X55970000Y-42790000D02*
X55790000Y-42790000D01*
X53250000Y-45570000D02*
X55970000Y-45570000D01*
X53430000Y-68970000D02*
X53250000Y-68970000D01*
X53250000Y-68970000D02*
X53250000Y-65650000D01*
X53250000Y-65650000D02*
X53430000Y-65650000D01*
X55790000Y-68970000D02*
X55970000Y-68970000D01*
X55970000Y-68970000D02*
X55970000Y-65650000D01*
X55970000Y-65650000D02*
X55790000Y-65650000D01*
X53250000Y-68430000D02*
X55970000Y-68430000D01*
X53430000Y-91830000D02*
X53250000Y-91830000D01*
X53250000Y-91830000D02*
X53250000Y-88510000D01*
X53250000Y-88510000D02*
X53430000Y-88510000D01*
X55790000Y-91830000D02*
X55970000Y-91830000D01*
X55970000Y-91830000D02*
X55970000Y-88510000D01*
X55970000Y-88510000D02*
X55790000Y-88510000D01*
X53250000Y-91290000D02*
X55970000Y-91290000D01*
X76290000Y-46110000D02*
X76110000Y-46110000D01*
X76110000Y-46110000D02*
X76110000Y-42790000D01*
X76110000Y-42790000D02*
X76290000Y-42790000D01*
X78650000Y-46110000D02*
X78830000Y-46110000D01*
X78830000Y-46110000D02*
X78830000Y-42790000D01*
X78830000Y-42790000D02*
X78650000Y-42790000D01*
X76110000Y-45570000D02*
X78830000Y-45570000D01*
X76290000Y-68970000D02*
X76110000Y-68970000D01*
X76110000Y-68970000D02*
X76110000Y-65650000D01*
X76110000Y-65650000D02*
X76290000Y-65650000D01*
X78650000Y-68970000D02*
X78830000Y-68970000D01*
X78830000Y-68970000D02*
X78830000Y-65650000D01*
X78830000Y-65650000D02*
X78650000Y-65650000D01*
X76110000Y-68430000D02*
X78830000Y-68430000D01*
X76290000Y-91830000D02*
X76110000Y-91830000D01*
X76110000Y-91830000D02*
X76110000Y-88510000D01*
X76110000Y-88510000D02*
X76290000Y-88510000D01*
X78650000Y-91830000D02*
X78830000Y-91830000D01*
X78830000Y-91830000D02*
X78830000Y-88510000D01*
X78830000Y-88510000D02*
X78650000Y-88510000D01*
X76110000Y-91290000D02*
X78830000Y-91290000D01*
X99150000Y-46110000D02*
X98970000Y-46110000D01*
X98970000Y-46110000D02*
X98970000Y-42790000D01*
X98970000Y-42790000D02*
X99150000Y-42790000D01*
X101510000Y-46110000D02*
X101690000Y-46110000D01*
X101690000Y-46110000D02*
X101690000Y-42790000D01*
X101690000Y-42790000D02*
X101510000Y-42790000D01*
X98970000Y-45570000D02*
X101690000Y-45570000D01*
X99150000Y-68970000D02*
X98970000Y-68970000D01*
X98970000Y-68970000D02*
X98970000Y-65650000D01*
X98970000Y-65650000D02*
X99150000Y-65650000D01*
X101510000Y-68970000D02*
X101690000Y-68970000D01*
X101690000Y-68970000D02*
X101690000Y-65650000D01*
X101690000Y-65650000D02*
X101510000Y-65650000D01*
X98970000Y-68430000D02*
X101690000Y-68430000D01*
X99150000Y-91830000D02*
X98970000Y-91830000D01*
X98970000Y-91830000D02*
X98970000Y-88510000D01*
X98970000Y-88510000D02*
X99150000Y-88510000D01*
X101510000Y-91830000D02*
X101690000Y-91830000D01*
X101690000Y-91830000D02*
X101690000Y-88510000D01*
X101690000Y-88510000D02*
X101510000Y-88510000D01*
X98970000Y-91290000D02*
X101690000Y-91290000D01*
X122010000Y-46110000D02*
X121830000Y-46110000D01*
X121830000Y-46110000D02*
X121830000Y-42790000D01*
X121830000Y-42790000D02*
X122010000Y-42790000D01*
X124370000Y-46110000D02*
X124550000Y-46110000D01*
X124550000Y-46110000D02*
X124550000Y-42790000D01*
X124550000Y-42790000D02*
X124370000Y-42790000D01*
X121830000Y-45570000D02*
X124550000Y-45570000D01*
X122010000Y-68970000D02*
X121830000Y-68970000D01*
X121830000Y-68970000D02*
X121830000Y-65650000D01*
X121830000Y-65650000D02*
X122010000Y-65650000D01*
X124370000Y-68970000D02*
X124550000Y-68970000D01*
X124550000Y-68970000D02*
X124550000Y-65650000D01*
X124550000Y-65650000D02*
X124370000Y-65650000D01*
X121830000Y-68430000D02*
X124550000Y-68430000D01*
X122010000Y-91830000D02*
X121830000Y-91830000D01*
X121830000Y-91830000D02*
X121830000Y-88510000D01*
X121830000Y-88510000D02*
X122010000Y-88510000D01*
X124370000Y-91830000D02*
X124550000Y-91830000D01*
X124550000Y-91830000D02*
X124550000Y-88510000D01*
X124550000Y-88510000D02*
X124370000Y-88510000D01*
X121830000Y-91290000D02*
X124550000Y-91290000D01*
X38980000Y-75020000D02*
X38980000Y-74840000D01*
X38980000Y-74840000D02*
X42300000Y-74840000D01*
X42300000Y-74840000D02*
X42300000Y-75020000D01*
X38980000Y-77380000D02*
X38980000Y-77560000D01*
X38980000Y-77560000D02*
X42300000Y-77560000D01*
X42300000Y-77560000D02*
X42300000Y-77380000D01*
X39520000Y-74840000D02*
X39520000Y-77560000D01*
X59055000Y-40005000D02*
X73025000Y-40005000D01*
X73025000Y-40005000D02*
X73025000Y-53975000D01*
X73025000Y-53975000D02*
X59055000Y-53975000D01*
X59055000Y-53975000D02*
X59055000Y-40005000D01*
X59055000Y-62865000D02*
X73025000Y-62865000D01*
X73025000Y-62865000D02*
X73025000Y-76835000D01*
X73025000Y-76835000D02*
X59055000Y-76835000D01*
X59055000Y-76835000D02*
X59055000Y-62865000D01*
X59055000Y-85725000D02*
X73025000Y-85725000D01*
X73025000Y-85725000D02*
X73025000Y-99695000D01*
X73025000Y-99695000D02*
X59055000Y-99695000D01*
X59055000Y-99695000D02*
X59055000Y-85725000D01*
X81915000Y-40005000D02*
X95885000Y-40005000D01*
X95885000Y-40005000D02*
X95885000Y-53975000D01*
X95885000Y-53975000D02*
X81915000Y-53975000D01*
X81915000Y-53975000D02*
X81915000Y-40005000D01*
X81915000Y-62865000D02*
X95885000Y-62865000D01*
X95885000Y-62865000D02*
X95885000Y-76835000D01*
X95885000Y-76835000D02*
X81915000Y-76835000D01*
X81915000Y-76835000D02*
X81915000Y-62865000D01*
X81915000Y-85725000D02*
X95885000Y-85725000D01*
X95885000Y-85725000D02*
X95885000Y-99695000D01*
X95885000Y-99695000D02*
X81915000Y-99695000D01*
X81915000Y-99695000D02*
X81915000Y-85725000D01*
X104775000Y-40005000D02*
X118745000Y-40005000D01*
X118745000Y-40005000D02*
X118745000Y-53975000D01*
X118745000Y-53975000D02*
X104775000Y-53975000D01*
X104775000Y-53975000D02*
X104775000Y-40005000D01*
X104775000Y-62865000D02*
X118745000Y-62865000D01*
X118745000Y-62865000D02*
X118745000Y-76835000D01*
X118745000Y-76835000D02*
X104775000Y-76835000D01*
X104775000Y-76835000D02*
X104775000Y-62865000D01*
X104775000Y-85725000D02*
X118745000Y-85725000D01*
X118745000Y-85725000D02*
X118745000Y-99695000D01*
X118745000Y-99695000D02*
X104775000Y-99695000D01*
X104775000Y-99695000D02*
X104775000Y-85725000D01*
X127635000Y-40005000D02*
X141605000Y-40005000D01*
X141605000Y-40005000D02*
X141605000Y-53975000D01*
X141605000Y-53975000D02*
X127635000Y-53975000D01*
X127635000Y-53975000D02*
X127635000Y-40005000D01*
X127635000Y-62865000D02*
X141605000Y-62865000D01*
X141605000Y-62865000D02*
X141605000Y-76835000D01*
X141605000Y-76835000D02*
X127635000Y-76835000D01*
X127635000Y-76835000D02*
X127635000Y-62865000D01*
X127635000Y-85725000D02*
X141605000Y-85725000D01*
X141605000Y-85725000D02*
X141605000Y-99695000D01*
X141605000Y-99695000D02*
X127635000Y-99695000D01*
X127635000Y-99695000D02*
X127635000Y-85725000D01*
X33655000Y-85725000D02*
X47625000Y-85725000D01*
X47625000Y-85725000D02*
X47625000Y-99695000D01*
X47625000Y-99695000D02*
X33655000Y-99695000D01*
X33655000Y-99695000D02*
X33655000Y-85725000D01*
D12*
X52702381Y-45188095D02*
X51702381Y-45188095D01*
X51702381Y-44950000D01*
X51750000Y-44807142D01*
X51845238Y-44711904D01*
X51940476Y-44664285D01*
X52130952Y-44616666D01*
X52273810Y-44616666D01*
X52464286Y-44664285D01*
X52559524Y-44711904D01*
X52654762Y-44807142D01*
X52702381Y-44950000D01*
X52702381Y-45188095D01*
X52702381Y-43664285D02*
X52702381Y-44235714D01*
X52702381Y-43950000D02*
X51702381Y-43950000D01*
X51845238Y-44045238D01*
X51940476Y-44140476D01*
X51988095Y-44235714D01*
X52702381Y-68048095D02*
X51702381Y-68048095D01*
X51702381Y-67810000D01*
X51750000Y-67667142D01*
X51845238Y-67571904D01*
X51940476Y-67524285D01*
X52130952Y-67476666D01*
X52273810Y-67476666D01*
X52464286Y-67524285D01*
X52559524Y-67571904D01*
X52654762Y-67667142D01*
X52702381Y-67810000D01*
X52702381Y-68048095D01*
X51797619Y-67095714D02*
X51750000Y-67048095D01*
X51702381Y-66952857D01*
X51702381Y-66714761D01*
X51750000Y-66619523D01*
X51797619Y-66571904D01*
X51892857Y-66524285D01*
X51988095Y-66524285D01*
X52130952Y-66571904D01*
X52702381Y-67143333D01*
X52702381Y-66524285D01*
X52702381Y-90908095D02*
X51702381Y-90908095D01*
X51702381Y-90670000D01*
X51750000Y-90527142D01*
X51845238Y-90431904D01*
X51940476Y-90384285D01*
X52130952Y-90336666D01*
X52273810Y-90336666D01*
X52464286Y-90384285D01*
X52559524Y-90431904D01*
X52654762Y-90527142D01*
X52702381Y-90670000D01*
X52702381Y-90908095D01*
X51702381Y-90003333D02*
X51702381Y-89384285D01*
X52083333Y-89717619D01*
X52083333Y-89574761D01*
X52130952Y-89479523D01*
X52178571Y-89431904D01*
X52273810Y-89384285D01*
X52511905Y-89384285D01*
X52607143Y-89431904D01*
X52654762Y-89479523D01*
X52702381Y-89574761D01*
X52702381Y-89860476D01*
X52654762Y-89955714D01*
X52607143Y-90003333D01*
X75562381Y-45188095D02*
X74562381Y-45188095D01*
X74562381Y-44950000D01*
X74610000Y-44807142D01*
X74705238Y-44711904D01*
X74800476Y-44664285D01*
X74990952Y-44616666D01*
X75133810Y-44616666D01*
X75324286Y-44664285D01*
X75419524Y-44711904D01*
X75514762Y-44807142D01*
X75562381Y-44950000D01*
X75562381Y-45188095D01*
X74895714Y-43759523D02*
X75562381Y-43759523D01*
X74514762Y-43997619D02*
X75229048Y-44235714D01*
X75229048Y-43616666D01*
X75562381Y-68048095D02*
X74562381Y-68048095D01*
X74562381Y-67810000D01*
X74610000Y-67667142D01*
X74705238Y-67571904D01*
X74800476Y-67524285D01*
X74990952Y-67476666D01*
X75133810Y-67476666D01*
X75324286Y-67524285D01*
X75419524Y-67571904D01*
X75514762Y-67667142D01*
X75562381Y-67810000D01*
X75562381Y-68048095D01*
X74562381Y-66571904D02*
X74562381Y-67048095D01*
X75038571Y-67095714D01*
X74990952Y-67048095D01*
X74943333Y-66952857D01*
X74943333Y-66714761D01*
X74990952Y-66619523D01*
X75038571Y-66571904D01*
X75133810Y-66524285D01*
X75371905Y-66524285D01*
X75467143Y-66571904D01*
X75514762Y-66619523D01*
X75562381Y-66714761D01*
X75562381Y-66952857D01*
X75514762Y-67048095D01*
X75467143Y-67095714D01*
X75562381Y-90908095D02*
X74562381Y-90908095D01*
X74562381Y-90670000D01*
X74610000Y-90527142D01*
X74705238Y-90431904D01*
X74800476Y-90384285D01*
X74990952Y-90336666D01*
X75133810Y-90336666D01*
X75324286Y-90384285D01*
X75419524Y-90431904D01*
X75514762Y-90527142D01*
X75562381Y-90670000D01*
X75562381Y-90908095D01*
X74562381Y-89479523D02*
X74562381Y-89670000D01*
X74610000Y-89765238D01*
X74657619Y-89812857D01*
X74800476Y-89908095D01*
X74990952Y-89955714D01*
X75371905Y-89955714D01*
X75467143Y-89908095D01*
X75514762Y-89860476D01*
X75562381Y-89765238D01*
X75562381Y-89574761D01*
X75514762Y-89479523D01*
X75467143Y-89431904D01*
X75371905Y-89384285D01*
X75133810Y-89384285D01*
X75038571Y-89431904D01*
X74990952Y-89479523D01*
X74943333Y-89574761D01*
X74943333Y-89765238D01*
X74990952Y-89860476D01*
X75038571Y-89908095D01*
X75133810Y-89955714D01*
X98422381Y-45188095D02*
X97422381Y-45188095D01*
X97422381Y-44950000D01*
X97470000Y-44807142D01*
X97565238Y-44711904D01*
X97660476Y-44664285D01*
X97850952Y-44616666D01*
X97993810Y-44616666D01*
X98184286Y-44664285D01*
X98279524Y-44711904D01*
X98374762Y-44807142D01*
X98422381Y-44950000D01*
X98422381Y-45188095D01*
X97422381Y-44283333D02*
X97422381Y-43616666D01*
X98422381Y-44045238D01*
X98422381Y-68048095D02*
X97422381Y-68048095D01*
X97422381Y-67810000D01*
X97470000Y-67667142D01*
X97565238Y-67571904D01*
X97660476Y-67524285D01*
X97850952Y-67476666D01*
X97993810Y-67476666D01*
X98184286Y-67524285D01*
X98279524Y-67571904D01*
X98374762Y-67667142D01*
X98422381Y-67810000D01*
X98422381Y-68048095D01*
X97850952Y-66905238D02*
X97803333Y-67000476D01*
X97755714Y-67048095D01*
X97660476Y-67095714D01*
X97612857Y-67095714D01*
X97517619Y-67048095D01*
X97470000Y-67000476D01*
X97422381Y-66905238D01*
X97422381Y-66714761D01*
X97470000Y-66619523D01*
X97517619Y-66571904D01*
X97612857Y-66524285D01*
X97660476Y-66524285D01*
X97755714Y-66571904D01*
X97803333Y-66619523D01*
X97850952Y-66714761D01*
X97850952Y-66905238D01*
X97898571Y-67000476D01*
X97946190Y-67048095D01*
X98041429Y-67095714D01*
X98231905Y-67095714D01*
X98327143Y-67048095D01*
X98374762Y-67000476D01*
X98422381Y-66905238D01*
X98422381Y-66714761D01*
X98374762Y-66619523D01*
X98327143Y-66571904D01*
X98231905Y-66524285D01*
X98041429Y-66524285D01*
X97946190Y-66571904D01*
X97898571Y-66619523D01*
X97850952Y-66714761D01*
X98422381Y-90908095D02*
X97422381Y-90908095D01*
X97422381Y-90670000D01*
X97470000Y-90527142D01*
X97565238Y-90431904D01*
X97660476Y-90384285D01*
X97850952Y-90336666D01*
X97993810Y-90336666D01*
X98184286Y-90384285D01*
X98279524Y-90431904D01*
X98374762Y-90527142D01*
X98422381Y-90670000D01*
X98422381Y-90908095D01*
X98422381Y-89860476D02*
X98422381Y-89670000D01*
X98374762Y-89574761D01*
X98327143Y-89527142D01*
X98184286Y-89431904D01*
X97993810Y-89384285D01*
X97612857Y-89384285D01*
X97517619Y-89431904D01*
X97470000Y-89479523D01*
X97422381Y-89574761D01*
X97422381Y-89765238D01*
X97470000Y-89860476D01*
X97517619Y-89908095D01*
X97612857Y-89955714D01*
X97850952Y-89955714D01*
X97946190Y-89908095D01*
X97993810Y-89860476D01*
X98041429Y-89765238D01*
X98041429Y-89574761D01*
X97993810Y-89479523D01*
X97946190Y-89431904D01*
X97850952Y-89384285D01*
X121282381Y-45664286D02*
X120282381Y-45664286D01*
X120282381Y-45426191D01*
X120330000Y-45283333D01*
X120425238Y-45188095D01*
X120520476Y-45140476D01*
X120710952Y-45092857D01*
X120853810Y-45092857D01*
X121044286Y-45140476D01*
X121139524Y-45188095D01*
X121234762Y-45283333D01*
X121282381Y-45426191D01*
X121282381Y-45664286D01*
X121282381Y-44140476D02*
X121282381Y-44711905D01*
X121282381Y-44426191D02*
X120282381Y-44426191D01*
X120425238Y-44521429D01*
X120520476Y-44616667D01*
X120568095Y-44711905D01*
X120282381Y-43521429D02*
X120282381Y-43426190D01*
X120330000Y-43330952D01*
X120377619Y-43283333D01*
X120472857Y-43235714D01*
X120663333Y-43188095D01*
X120901429Y-43188095D01*
X121091905Y-43235714D01*
X121187143Y-43283333D01*
X121234762Y-43330952D01*
X121282381Y-43426190D01*
X121282381Y-43521429D01*
X121234762Y-43616667D01*
X121187143Y-43664286D01*
X121091905Y-43711905D01*
X120901429Y-43759524D01*
X120663333Y-43759524D01*
X120472857Y-43711905D01*
X120377619Y-43664286D01*
X120330000Y-43616667D01*
X120282381Y-43521429D01*
X121282381Y-68524286D02*
X120282381Y-68524286D01*
X120282381Y-68286191D01*
X120330000Y-68143333D01*
X120425238Y-68048095D01*
X120520476Y-68000476D01*
X120710952Y-67952857D01*
X120853810Y-67952857D01*
X121044286Y-68000476D01*
X121139524Y-68048095D01*
X121234762Y-68143333D01*
X121282381Y-68286191D01*
X121282381Y-68524286D01*
X121282381Y-67000476D02*
X121282381Y-67571905D01*
X121282381Y-67286191D02*
X120282381Y-67286191D01*
X120425238Y-67381429D01*
X120520476Y-67476667D01*
X120568095Y-67571905D01*
X121282381Y-66048095D02*
X121282381Y-66619524D01*
X121282381Y-66333810D02*
X120282381Y-66333810D01*
X120425238Y-66429048D01*
X120520476Y-66524286D01*
X120568095Y-66619524D01*
X121282381Y-91384286D02*
X120282381Y-91384286D01*
X120282381Y-91146191D01*
X120330000Y-91003333D01*
X120425238Y-90908095D01*
X120520476Y-90860476D01*
X120710952Y-90812857D01*
X120853810Y-90812857D01*
X121044286Y-90860476D01*
X121139524Y-90908095D01*
X121234762Y-91003333D01*
X121282381Y-91146191D01*
X121282381Y-91384286D01*
X121282381Y-89860476D02*
X121282381Y-90431905D01*
X121282381Y-90146191D02*
X120282381Y-90146191D01*
X120425238Y-90241429D01*
X120520476Y-90336667D01*
X120568095Y-90431905D01*
X120377619Y-89479524D02*
X120330000Y-89431905D01*
X120282381Y-89336667D01*
X120282381Y-89098571D01*
X120330000Y-89003333D01*
X120377619Y-88955714D01*
X120472857Y-88908095D01*
X120568095Y-88908095D01*
X120710952Y-88955714D01*
X121282381Y-89527143D01*
X121282381Y-88908095D01*
X39425714Y-74292381D02*
X39425714Y-73292381D01*
X39663809Y-73292381D01*
X39806667Y-73340000D01*
X39901905Y-73435238D01*
X39949524Y-73530476D01*
X39997143Y-73720952D01*
X39997143Y-73863810D01*
X39949524Y-74054286D01*
X39901905Y-74149524D01*
X39806667Y-74244762D01*
X39663809Y-74292381D01*
X39425714Y-74292381D01*
X40949524Y-74292381D02*
X40378095Y-74292381D01*
X40663809Y-74292381D02*
X40663809Y-73292381D01*
X40568571Y-73435238D01*
X40473333Y-73530476D01*
X40378095Y-73578095D01*
X41282857Y-73292381D02*
X41901905Y-73292381D01*
X41568571Y-73673333D01*
X41711429Y-73673333D01*
X41806667Y-73720952D01*
X41854286Y-73768571D01*
X41901905Y-73863810D01*
X41901905Y-74101905D01*
X41854286Y-74197143D01*
X41806667Y-74244762D01*
X41711429Y-74292381D01*
X41425714Y-74292381D01*
X41330476Y-74244762D01*
X41282857Y-74197143D01*
X64706667Y-39520762D02*
X64849524Y-39568381D01*
X65087620Y-39568381D01*
X65182858Y-39520762D01*
X65230477Y-39473143D01*
X65278096Y-39377905D01*
X65278096Y-39282667D01*
X65230477Y-39187429D01*
X65182858Y-39139810D01*
X65087620Y-39092190D01*
X64897143Y-39044571D01*
X64801905Y-38996952D01*
X64754286Y-38949333D01*
X64706667Y-38854095D01*
X64706667Y-38758857D01*
X64754286Y-38663619D01*
X64801905Y-38616000D01*
X64897143Y-38568381D01*
X65135239Y-38568381D01*
X65278096Y-38616000D01*
X65611429Y-38568381D02*
X65849524Y-39568381D01*
X66040001Y-38854095D01*
X66230477Y-39568381D01*
X66468572Y-38568381D01*
X67373334Y-39568381D02*
X66801905Y-39568381D01*
X67087619Y-39568381D02*
X67087619Y-38568381D01*
X66992381Y-38711238D01*
X66897143Y-38806476D01*
X66801905Y-38854095D01*
X64706667Y-62380762D02*
X64849524Y-62428381D01*
X65087620Y-62428381D01*
X65182858Y-62380762D01*
X65230477Y-62333143D01*
X65278096Y-62237905D01*
X65278096Y-62142667D01*
X65230477Y-62047429D01*
X65182858Y-61999810D01*
X65087620Y-61952190D01*
X64897143Y-61904571D01*
X64801905Y-61856952D01*
X64754286Y-61809333D01*
X64706667Y-61714095D01*
X64706667Y-61618857D01*
X64754286Y-61523619D01*
X64801905Y-61476000D01*
X64897143Y-61428381D01*
X65135239Y-61428381D01*
X65278096Y-61476000D01*
X65611429Y-61428381D02*
X65849524Y-62428381D01*
X66040001Y-61714095D01*
X66230477Y-62428381D01*
X66468572Y-61428381D01*
X66801905Y-61523619D02*
X66849524Y-61476000D01*
X66944762Y-61428381D01*
X67182858Y-61428381D01*
X67278096Y-61476000D01*
X67325715Y-61523619D01*
X67373334Y-61618857D01*
X67373334Y-61714095D01*
X67325715Y-61856952D01*
X66754286Y-62428381D01*
X67373334Y-62428381D01*
X64706667Y-85240762D02*
X64849524Y-85288381D01*
X65087620Y-85288381D01*
X65182858Y-85240762D01*
X65230477Y-85193143D01*
X65278096Y-85097905D01*
X65278096Y-85002667D01*
X65230477Y-84907429D01*
X65182858Y-84859810D01*
X65087620Y-84812190D01*
X64897143Y-84764571D01*
X64801905Y-84716952D01*
X64754286Y-84669333D01*
X64706667Y-84574095D01*
X64706667Y-84478857D01*
X64754286Y-84383619D01*
X64801905Y-84336000D01*
X64897143Y-84288381D01*
X65135239Y-84288381D01*
X65278096Y-84336000D01*
X65611429Y-84288381D02*
X65849524Y-85288381D01*
X66040001Y-84574095D01*
X66230477Y-85288381D01*
X66468572Y-84288381D01*
X66754286Y-84288381D02*
X67373334Y-84288381D01*
X67040000Y-84669333D01*
X67182858Y-84669333D01*
X67278096Y-84716952D01*
X67325715Y-84764571D01*
X67373334Y-84859810D01*
X67373334Y-85097905D01*
X67325715Y-85193143D01*
X67278096Y-85240762D01*
X67182858Y-85288381D01*
X66897143Y-85288381D01*
X66801905Y-85240762D01*
X66754286Y-85193143D01*
X87566667Y-39520762D02*
X87709524Y-39568381D01*
X87947620Y-39568381D01*
X88042858Y-39520762D01*
X88090477Y-39473143D01*
X88138096Y-39377905D01*
X88138096Y-39282667D01*
X88090477Y-39187429D01*
X88042858Y-39139810D01*
X87947620Y-39092190D01*
X87757143Y-39044571D01*
X87661905Y-38996952D01*
X87614286Y-38949333D01*
X87566667Y-38854095D01*
X87566667Y-38758857D01*
X87614286Y-38663619D01*
X87661905Y-38616000D01*
X87757143Y-38568381D01*
X87995239Y-38568381D01*
X88138096Y-38616000D01*
X88471429Y-38568381D02*
X88709524Y-39568381D01*
X88900001Y-38854095D01*
X89090477Y-39568381D01*
X89328572Y-38568381D01*
X90138096Y-38901714D02*
X90138096Y-39568381D01*
X89900000Y-38520762D02*
X89661905Y-39235048D01*
X90280953Y-39235048D01*
X87566667Y-62380762D02*
X87709524Y-62428381D01*
X87947620Y-62428381D01*
X88042858Y-62380762D01*
X88090477Y-62333143D01*
X88138096Y-62237905D01*
X88138096Y-62142667D01*
X88090477Y-62047429D01*
X88042858Y-61999810D01*
X87947620Y-61952190D01*
X87757143Y-61904571D01*
X87661905Y-61856952D01*
X87614286Y-61809333D01*
X87566667Y-61714095D01*
X87566667Y-61618857D01*
X87614286Y-61523619D01*
X87661905Y-61476000D01*
X87757143Y-61428381D01*
X87995239Y-61428381D01*
X88138096Y-61476000D01*
X88471429Y-61428381D02*
X88709524Y-62428381D01*
X88900001Y-61714095D01*
X89090477Y-62428381D01*
X89328572Y-61428381D01*
X90185715Y-61428381D02*
X89709524Y-61428381D01*
X89661905Y-61904571D01*
X89709524Y-61856952D01*
X89804762Y-61809333D01*
X90042858Y-61809333D01*
X90138096Y-61856952D01*
X90185715Y-61904571D01*
X90233334Y-61999810D01*
X90233334Y-62237905D01*
X90185715Y-62333143D01*
X90138096Y-62380762D01*
X90042858Y-62428381D01*
X89804762Y-62428381D01*
X89709524Y-62380762D01*
X89661905Y-62333143D01*
X87566667Y-85240762D02*
X87709524Y-85288381D01*
X87947620Y-85288381D01*
X88042858Y-85240762D01*
X88090477Y-85193143D01*
X88138096Y-85097905D01*
X88138096Y-85002667D01*
X88090477Y-84907429D01*
X88042858Y-84859810D01*
X87947620Y-84812190D01*
X87757143Y-84764571D01*
X87661905Y-84716952D01*
X87614286Y-84669333D01*
X87566667Y-84574095D01*
X87566667Y-84478857D01*
X87614286Y-84383619D01*
X87661905Y-84336000D01*
X87757143Y-84288381D01*
X87995239Y-84288381D01*
X88138096Y-84336000D01*
X88471429Y-84288381D02*
X88709524Y-85288381D01*
X88900001Y-84574095D01*
X89090477Y-85288381D01*
X89328572Y-84288381D01*
X90138096Y-84288381D02*
X89947619Y-84288381D01*
X89852381Y-84336000D01*
X89804762Y-84383619D01*
X89709524Y-84526476D01*
X89661905Y-84716952D01*
X89661905Y-85097905D01*
X89709524Y-85193143D01*
X89757143Y-85240762D01*
X89852381Y-85288381D01*
X90042858Y-85288381D01*
X90138096Y-85240762D01*
X90185715Y-85193143D01*
X90233334Y-85097905D01*
X90233334Y-84859810D01*
X90185715Y-84764571D01*
X90138096Y-84716952D01*
X90042858Y-84669333D01*
X89852381Y-84669333D01*
X89757143Y-84716952D01*
X89709524Y-84764571D01*
X89661905Y-84859810D01*
X110426667Y-39520762D02*
X110569524Y-39568381D01*
X110807620Y-39568381D01*
X110902858Y-39520762D01*
X110950477Y-39473143D01*
X110998096Y-39377905D01*
X110998096Y-39282667D01*
X110950477Y-39187429D01*
X110902858Y-39139810D01*
X110807620Y-39092190D01*
X110617143Y-39044571D01*
X110521905Y-38996952D01*
X110474286Y-38949333D01*
X110426667Y-38854095D01*
X110426667Y-38758857D01*
X110474286Y-38663619D01*
X110521905Y-38616000D01*
X110617143Y-38568381D01*
X110855239Y-38568381D01*
X110998096Y-38616000D01*
X111331429Y-38568381D02*
X111569524Y-39568381D01*
X111760001Y-38854095D01*
X111950477Y-39568381D01*
X112188572Y-38568381D01*
X112474286Y-38568381D02*
X113140953Y-38568381D01*
X112712381Y-39568381D01*
X110426667Y-62380762D02*
X110569524Y-62428381D01*
X110807620Y-62428381D01*
X110902858Y-62380762D01*
X110950477Y-62333143D01*
X110998096Y-62237905D01*
X110998096Y-62142667D01*
X110950477Y-62047429D01*
X110902858Y-61999810D01*
X110807620Y-61952190D01*
X110617143Y-61904571D01*
X110521905Y-61856952D01*
X110474286Y-61809333D01*
X110426667Y-61714095D01*
X110426667Y-61618857D01*
X110474286Y-61523619D01*
X110521905Y-61476000D01*
X110617143Y-61428381D01*
X110855239Y-61428381D01*
X110998096Y-61476000D01*
X111331429Y-61428381D02*
X111569524Y-62428381D01*
X111760001Y-61714095D01*
X111950477Y-62428381D01*
X112188572Y-61428381D01*
X112712381Y-61856952D02*
X112617143Y-61809333D01*
X112569524Y-61761714D01*
X112521905Y-61666476D01*
X112521905Y-61618857D01*
X112569524Y-61523619D01*
X112617143Y-61476000D01*
X112712381Y-61428381D01*
X112902858Y-61428381D01*
X112998096Y-61476000D01*
X113045715Y-61523619D01*
X113093334Y-61618857D01*
X113093334Y-61666476D01*
X113045715Y-61761714D01*
X112998096Y-61809333D01*
X112902858Y-61856952D01*
X112712381Y-61856952D01*
X112617143Y-61904571D01*
X112569524Y-61952190D01*
X112521905Y-62047429D01*
X112521905Y-62237905D01*
X112569524Y-62333143D01*
X112617143Y-62380762D01*
X112712381Y-62428381D01*
X112902858Y-62428381D01*
X112998096Y-62380762D01*
X113045715Y-62333143D01*
X113093334Y-62237905D01*
X113093334Y-62047429D01*
X113045715Y-61952190D01*
X112998096Y-61904571D01*
X112902858Y-61856952D01*
X110426667Y-85240762D02*
X110569524Y-85288381D01*
X110807620Y-85288381D01*
X110902858Y-85240762D01*
X110950477Y-85193143D01*
X110998096Y-85097905D01*
X110998096Y-85002667D01*
X110950477Y-84907429D01*
X110902858Y-84859810D01*
X110807620Y-84812190D01*
X110617143Y-84764571D01*
X110521905Y-84716952D01*
X110474286Y-84669333D01*
X110426667Y-84574095D01*
X110426667Y-84478857D01*
X110474286Y-84383619D01*
X110521905Y-84336000D01*
X110617143Y-84288381D01*
X110855239Y-84288381D01*
X110998096Y-84336000D01*
X111331429Y-84288381D02*
X111569524Y-85288381D01*
X111760001Y-84574095D01*
X111950477Y-85288381D01*
X112188572Y-84288381D01*
X112617143Y-85288381D02*
X112807619Y-85288381D01*
X112902858Y-85240762D01*
X112950477Y-85193143D01*
X113045715Y-85050286D01*
X113093334Y-84859810D01*
X113093334Y-84478857D01*
X113045715Y-84383619D01*
X112998096Y-84336000D01*
X112902858Y-84288381D01*
X112712381Y-84288381D01*
X112617143Y-84336000D01*
X112569524Y-84383619D01*
X112521905Y-84478857D01*
X112521905Y-84716952D01*
X112569524Y-84812190D01*
X112617143Y-84859810D01*
X112712381Y-84907429D01*
X112902858Y-84907429D01*
X112998096Y-84859810D01*
X113045715Y-84812190D01*
X113093334Y-84716952D01*
X132810476Y-39520762D02*
X132953333Y-39568381D01*
X133191429Y-39568381D01*
X133286667Y-39520762D01*
X133334286Y-39473143D01*
X133381905Y-39377905D01*
X133381905Y-39282667D01*
X133334286Y-39187429D01*
X133286667Y-39139810D01*
X133191429Y-39092190D01*
X133000952Y-39044571D01*
X132905714Y-38996952D01*
X132858095Y-38949333D01*
X132810476Y-38854095D01*
X132810476Y-38758857D01*
X132858095Y-38663619D01*
X132905714Y-38616000D01*
X133000952Y-38568381D01*
X133239048Y-38568381D01*
X133381905Y-38616000D01*
X133715238Y-38568381D02*
X133953333Y-39568381D01*
X134143810Y-38854095D01*
X134334286Y-39568381D01*
X134572381Y-38568381D01*
X135477143Y-39568381D02*
X134905714Y-39568381D01*
X135191428Y-39568381D02*
X135191428Y-38568381D01*
X135096190Y-38711238D01*
X135000952Y-38806476D01*
X134905714Y-38854095D01*
X136096190Y-38568381D02*
X136191429Y-38568381D01*
X136286667Y-38616000D01*
X136334286Y-38663619D01*
X136381905Y-38758857D01*
X136429524Y-38949333D01*
X136429524Y-39187429D01*
X136381905Y-39377905D01*
X136334286Y-39473143D01*
X136286667Y-39520762D01*
X136191429Y-39568381D01*
X136096190Y-39568381D01*
X136000952Y-39520762D01*
X135953333Y-39473143D01*
X135905714Y-39377905D01*
X135858095Y-39187429D01*
X135858095Y-38949333D01*
X135905714Y-38758857D01*
X135953333Y-38663619D01*
X136000952Y-38616000D01*
X136096190Y-38568381D01*
X132810476Y-62380762D02*
X132953333Y-62428381D01*
X133191429Y-62428381D01*
X133286667Y-62380762D01*
X133334286Y-62333143D01*
X133381905Y-62237905D01*
X133381905Y-62142667D01*
X133334286Y-62047429D01*
X133286667Y-61999810D01*
X133191429Y-61952190D01*
X133000952Y-61904571D01*
X132905714Y-61856952D01*
X132858095Y-61809333D01*
X132810476Y-61714095D01*
X132810476Y-61618857D01*
X132858095Y-61523619D01*
X132905714Y-61476000D01*
X133000952Y-61428381D01*
X133239048Y-61428381D01*
X133381905Y-61476000D01*
X133715238Y-61428381D02*
X133953333Y-62428381D01*
X134143810Y-61714095D01*
X134334286Y-62428381D01*
X134572381Y-61428381D01*
X135477143Y-62428381D02*
X134905714Y-62428381D01*
X135191428Y-62428381D02*
X135191428Y-61428381D01*
X135096190Y-61571238D01*
X135000952Y-61666476D01*
X134905714Y-61714095D01*
X136429524Y-62428381D02*
X135858095Y-62428381D01*
X136143809Y-62428381D02*
X136143809Y-61428381D01*
X136048571Y-61571238D01*
X135953333Y-61666476D01*
X135858095Y-61714095D01*
X132810476Y-85240762D02*
X132953333Y-85288381D01*
X133191429Y-85288381D01*
X133286667Y-85240762D01*
X133334286Y-85193143D01*
X133381905Y-85097905D01*
X133381905Y-85002667D01*
X133334286Y-84907429D01*
X133286667Y-84859810D01*
X133191429Y-84812190D01*
X133000952Y-84764571D01*
X132905714Y-84716952D01*
X132858095Y-84669333D01*
X132810476Y-84574095D01*
X132810476Y-84478857D01*
X132858095Y-84383619D01*
X132905714Y-84336000D01*
X133000952Y-84288381D01*
X133239048Y-84288381D01*
X133381905Y-84336000D01*
X133715238Y-84288381D02*
X133953333Y-85288381D01*
X134143810Y-84574095D01*
X134334286Y-85288381D01*
X134572381Y-84288381D01*
X135477143Y-85288381D02*
X134905714Y-85288381D01*
X135191428Y-85288381D02*
X135191428Y-84288381D01*
X135096190Y-84431238D01*
X135000952Y-84526476D01*
X134905714Y-84574095D01*
X135858095Y-84383619D02*
X135905714Y-84336000D01*
X136000952Y-84288381D01*
X136239048Y-84288381D01*
X136334286Y-84336000D01*
X136381905Y-84383619D01*
X136429524Y-84478857D01*
X136429524Y-84574095D01*
X136381905Y-84716952D01*
X135810476Y-85288381D01*
X136429524Y-85288381D01*
X38830476Y-85240762D02*
X38973333Y-85288381D01*
X39211429Y-85288381D01*
X39306667Y-85240762D01*
X39354286Y-85193143D01*
X39401905Y-85097905D01*
X39401905Y-85002667D01*
X39354286Y-84907429D01*
X39306667Y-84859810D01*
X39211429Y-84812190D01*
X39020952Y-84764571D01*
X38925714Y-84716952D01*
X38878095Y-84669333D01*
X38830476Y-84574095D01*
X38830476Y-84478857D01*
X38878095Y-84383619D01*
X38925714Y-84336000D01*
X39020952Y-84288381D01*
X39259048Y-84288381D01*
X39401905Y-84336000D01*
X39735238Y-84288381D02*
X39973333Y-85288381D01*
X40163810Y-84574095D01*
X40354286Y-85288381D01*
X40592381Y-84288381D01*
X41497143Y-85288381D02*
X40925714Y-85288381D01*
X41211428Y-85288381D02*
X41211428Y-84288381D01*
X41116190Y-84431238D01*
X41020952Y-84526476D01*
X40925714Y-84574095D01*
X41830476Y-84288381D02*
X42449524Y-84288381D01*
X42116190Y-84669333D01*
X42259048Y-84669333D01*
X42354286Y-84716952D01*
X42401905Y-84764571D01*
X42449524Y-84859810D01*
X42449524Y-85097905D01*
X42401905Y-85193143D01*
X42354286Y-85240762D01*
X42259048Y-85288381D01*
X41973333Y-85288381D01*
X41878095Y-85240762D01*
X41830476Y-85193143D01*
D13*
X41663258Y-36786457D02*
X41750344Y-36815486D01*
X41779372Y-36844514D01*
X41808401Y-36902571D01*
X41808401Y-36989657D01*
X41779372Y-37047714D01*
X41750344Y-37076743D01*
X41692286Y-37105771D01*
X41460058Y-37105771D01*
X41460058Y-36496171D01*
X41663258Y-36496171D01*
X41721315Y-36525200D01*
X41750344Y-36554229D01*
X41779372Y-36612286D01*
X41779372Y-36670343D01*
X41750344Y-36728400D01*
X41721315Y-36757429D01*
X41663258Y-36786457D01*
X41460058Y-36786457D01*
X42388972Y-37105771D02*
X42040629Y-37105771D01*
X42214801Y-37105771D02*
X42214801Y-36496171D01*
X42156744Y-36583257D01*
X42098686Y-36641314D01*
X42040629Y-36670343D01*
X36844514Y-67556743D02*
X36931600Y-67585771D01*
X37076743Y-67585771D01*
X37134800Y-67556743D01*
X37163829Y-67527714D01*
X37192857Y-67469657D01*
X37192857Y-67411600D01*
X37163829Y-67353543D01*
X37134800Y-67324514D01*
X37076743Y-67295486D01*
X36960629Y-67266457D01*
X36902571Y-67237429D01*
X36873543Y-67208400D01*
X36844514Y-67150343D01*
X36844514Y-67092286D01*
X36873543Y-67034229D01*
X36902571Y-67005200D01*
X36960629Y-66976171D01*
X37105771Y-66976171D01*
X37192857Y-67005200D01*
X37454114Y-67585771D02*
X37454114Y-66976171D01*
X37686342Y-66976171D01*
X37744400Y-67005200D01*
X37773428Y-67034229D01*
X37802457Y-67092286D01*
X37802457Y-67179371D01*
X37773428Y-67237429D01*
X37744400Y-67266457D01*
X37686342Y-67295486D01*
X37454114Y-67295486D01*
X38034685Y-67411600D02*
X38324971Y-67411600D01*
X37976628Y-67585771D02*
X38179828Y-66976171D01*
X38383028Y-67585771D01*
X38934571Y-67585771D02*
X38731371Y-67295486D01*
X38586228Y-67585771D02*
X38586228Y-66976171D01*
X38818456Y-66976171D01*
X38876514Y-67005200D01*
X38905542Y-67034229D01*
X38934571Y-67092286D01*
X38934571Y-67179371D01*
X38905542Y-67237429D01*
X38876514Y-67266457D01*
X38818456Y-67295486D01*
X38586228Y-67295486D01*
X39195828Y-67585771D02*
X39195828Y-66976171D01*
X39544171Y-67585771D02*
X39282914Y-67237429D01*
X39544171Y-66976171D02*
X39195828Y-67324514D01*
X40008628Y-67266457D02*
X39805428Y-67266457D01*
X39805428Y-67585771D02*
X39805428Y-66976171D01*
X40095714Y-66976171D01*
X40327942Y-66976171D02*
X40327942Y-67469657D01*
X40356970Y-67527714D01*
X40385999Y-67556743D01*
X40444056Y-67585771D01*
X40560170Y-67585771D01*
X40618228Y-67556743D01*
X40647256Y-67527714D01*
X40676285Y-67469657D01*
X40676285Y-66976171D01*
X40966571Y-67585771D02*
X40966571Y-66976171D01*
X41314914Y-67585771D01*
X41314914Y-66976171D01*
X41460057Y-67643829D02*
X41924514Y-67643829D01*
X42069657Y-67585771D02*
X42069657Y-66976171D01*
X42301885Y-66976171D01*
X42359943Y-67005200D01*
X42388971Y-67034229D01*
X42418000Y-67092286D01*
X42418000Y-67179371D01*
X42388971Y-67237429D01*
X42359943Y-67266457D01*
X42301885Y-67295486D01*
X42069657Y-67295486D01*
X43027600Y-67585771D02*
X42824400Y-67295486D01*
X42679257Y-67585771D02*
X42679257Y-66976171D01*
X42911485Y-66976171D01*
X42969543Y-67005200D01*
X42998571Y-67034229D01*
X43027600Y-67092286D01*
X43027600Y-67179371D01*
X42998571Y-67237429D01*
X42969543Y-67266457D01*
X42911485Y-67295486D01*
X42679257Y-67295486D01*
X43404971Y-66976171D02*
X43521085Y-66976171D01*
X43579143Y-67005200D01*
X43637200Y-67063257D01*
X43666228Y-67179371D01*
X43666228Y-67382571D01*
X43637200Y-67498686D01*
X43579143Y-67556743D01*
X43521085Y-67585771D01*
X43404971Y-67585771D01*
X43346914Y-67556743D01*
X43288857Y-67498686D01*
X43259828Y-67382571D01*
X43259828Y-67179371D01*
X43288857Y-67063257D01*
X43346914Y-67005200D01*
X43404971Y-66976171D01*
X43782343Y-67643829D02*
X44246800Y-67643829D01*
X44391943Y-67585771D02*
X44391943Y-66976171D01*
X44595143Y-67411600D01*
X44798343Y-66976171D01*
X44798343Y-67585771D01*
X45088629Y-67585771D02*
X45088629Y-66976171D01*
X45727258Y-67527714D02*
X45698229Y-67556743D01*
X45611143Y-67585771D01*
X45553086Y-67585771D01*
X45466001Y-67556743D01*
X45407943Y-67498686D01*
X45378915Y-67440629D01*
X45349886Y-67324514D01*
X45349886Y-67237429D01*
X45378915Y-67121314D01*
X45407943Y-67063257D01*
X45466001Y-67005200D01*
X45553086Y-66976171D01*
X45611143Y-66976171D01*
X45698229Y-67005200D01*
X45727258Y-67034229D01*
X46336858Y-67585771D02*
X46133658Y-67295486D01*
X45988515Y-67585771D02*
X45988515Y-66976171D01*
X46220743Y-66976171D01*
X46278801Y-67005200D01*
X46307829Y-67034229D01*
X46336858Y-67092286D01*
X46336858Y-67179371D01*
X46307829Y-67237429D01*
X46278801Y-67266457D01*
X46220743Y-67295486D01*
X45988515Y-67295486D01*
X46714229Y-66976171D02*
X46830343Y-66976171D01*
X46888401Y-67005200D01*
X46946458Y-67063257D01*
X46975486Y-67179371D01*
X46975486Y-67382571D01*
X46946458Y-67498686D01*
X46888401Y-67556743D01*
X46830343Y-67585771D01*
X46714229Y-67585771D01*
X46656172Y-67556743D01*
X46598115Y-67498686D01*
X46569086Y-67382571D01*
X46569086Y-67179371D01*
X46598115Y-67063257D01*
X46656172Y-67005200D01*
X46714229Y-66976171D01*
M02*
