G04 #@! TF.FileFunction,Copper,L1,Top,Signal*
%FSLAX46Y46*%
G04 Gerber Fmt 4.6, Leading zero omitted, Abs format (unit mm)*
G04 Created by KiCad (PCBNEW 4.0.5+dfsg1-4) date Fri Jun 28 09:21:59 2019*
%MOMM*%
%LPD*%
G01*
G04 APERTURE LIST*
%ADD10C,0.100000*%
%ADD11R,2.000000X2.000000*%
%ADD12O,2.000000X2.000000*%
%ADD13C,2.200000*%
%ADD14C,1.879600*%
%ADD15C,0.250000*%
%ADD16C,0.254000*%
G04 APERTURE END LIST*
D10*
D11*
X54610000Y-46990000D03*
D12*
X54610000Y-41910000D03*
D11*
X54610000Y-69850000D03*
D12*
X54610000Y-64770000D03*
D11*
X54610000Y-92710000D03*
D12*
X54610000Y-87630000D03*
D11*
X77470000Y-46990000D03*
D12*
X77470000Y-41910000D03*
D11*
X77470000Y-69850000D03*
D12*
X77470000Y-64770000D03*
D11*
X77470000Y-92710000D03*
D12*
X77470000Y-87630000D03*
D11*
X100330000Y-46990000D03*
D12*
X100330000Y-41910000D03*
D11*
X100330000Y-69850000D03*
D12*
X100330000Y-64770000D03*
D11*
X100330000Y-92710000D03*
D12*
X100330000Y-87630000D03*
D11*
X123190000Y-46990000D03*
D12*
X123190000Y-41910000D03*
D11*
X123190000Y-69850000D03*
D12*
X123190000Y-64770000D03*
D11*
X123190000Y-92710000D03*
D12*
X123190000Y-87630000D03*
D11*
X38100000Y-76200000D03*
D12*
X43180000Y-76200000D03*
D13*
X68580000Y-41910000D03*
X62230000Y-44450000D03*
X68580000Y-64770000D03*
X62230000Y-67310000D03*
X68580000Y-87630000D03*
X62230000Y-90170000D03*
X91440000Y-41910000D03*
X85090000Y-44450000D03*
X91440000Y-64770000D03*
X85090000Y-67310000D03*
X91440000Y-87630000D03*
X85090000Y-90170000D03*
X114300000Y-41910000D03*
X107950000Y-44450000D03*
X114300000Y-64770000D03*
X107950000Y-67310000D03*
X114300000Y-87630000D03*
X107950000Y-90170000D03*
X137160000Y-41910000D03*
X130810000Y-44450000D03*
X137160000Y-64770000D03*
X130810000Y-67310000D03*
X137160000Y-87630000D03*
X130810000Y-90170000D03*
X43180000Y-87630000D03*
X36830000Y-90170000D03*
D14*
X34290000Y-39370000D03*
X34290000Y-41910000D03*
X34290000Y-44450000D03*
X34290000Y-46990000D03*
X34290000Y-49530000D03*
X34290000Y-52070000D03*
X34290000Y-54610000D03*
X34290000Y-57150000D03*
X34290000Y-59690000D03*
X34290000Y-62230000D03*
X34290000Y-64770000D03*
X34290000Y-67310000D03*
X49530000Y-67310000D03*
X49530000Y-64770000D03*
X49530000Y-62230000D03*
X49530000Y-59690000D03*
X49530000Y-57150000D03*
X49530000Y-54610000D03*
X49530000Y-52070000D03*
X49530000Y-49530000D03*
X49530000Y-46990000D03*
X49530000Y-44450000D03*
X49530000Y-41910000D03*
X49530000Y-39370000D03*
D15*
X105673200Y-42972100D02*
X101655300Y-46990000D01*
X112822100Y-42972100D02*
X105673200Y-42972100D01*
X116840000Y-46990000D02*
X112822100Y-42972100D01*
X123190000Y-46990000D02*
X116840000Y-46990000D01*
X100992700Y-46990000D02*
X101655300Y-46990000D01*
X100992700Y-46990000D02*
X100330000Y-46990000D01*
X81161300Y-49356000D02*
X78795300Y-46990000D01*
X96638700Y-49356000D02*
X81161300Y-49356000D01*
X99004700Y-46990000D02*
X96638700Y-49356000D01*
X100330000Y-46990000D02*
X99004700Y-46990000D01*
X78132700Y-46990000D02*
X78795300Y-46990000D01*
X78132700Y-46990000D02*
X77470000Y-46990000D01*
X77470000Y-46990000D02*
X76144700Y-46990000D01*
X73778700Y-49356000D02*
X54610000Y-49356000D01*
X76144700Y-46990000D02*
X73778700Y-49356000D01*
X54610000Y-49530000D02*
X54610000Y-49356000D01*
X49530000Y-54610000D02*
X54610000Y-49530000D01*
X54610000Y-49356000D02*
X54610000Y-46990000D01*
X68580000Y-41910000D02*
X54610000Y-41910000D01*
X119510700Y-72204000D02*
X121864700Y-69850000D01*
X104009300Y-72204000D02*
X119510700Y-72204000D01*
X101655300Y-69850000D02*
X104009300Y-72204000D01*
X100330000Y-69850000D02*
X101655300Y-69850000D01*
X123190000Y-69850000D02*
X121864700Y-69850000D01*
X96650700Y-72204000D02*
X99004700Y-69850000D01*
X81149300Y-72204000D02*
X96650700Y-72204000D01*
X78795300Y-69850000D02*
X81149300Y-72204000D01*
X77470000Y-69850000D02*
X78795300Y-69850000D01*
X100330000Y-69850000D02*
X99004700Y-69850000D01*
X73790700Y-72204000D02*
X76144700Y-69850000D01*
X58289300Y-72204000D02*
X73790700Y-72204000D01*
X55935300Y-69850000D02*
X58289300Y-72204000D01*
X54610000Y-69850000D02*
X55935300Y-69850000D01*
X77470000Y-69850000D02*
X76144700Y-69850000D01*
X68580000Y-64770000D02*
X54610000Y-64770000D01*
X103986400Y-95041100D02*
X101655300Y-92710000D01*
X119533600Y-95041100D02*
X103986400Y-95041100D01*
X121864700Y-92710000D02*
X119533600Y-95041100D01*
X123190000Y-92710000D02*
X121864700Y-92710000D01*
X100992700Y-92710000D02*
X101655300Y-92710000D01*
X100992700Y-92710000D02*
X100330000Y-92710000D01*
X96662200Y-95052500D02*
X99004700Y-92710000D01*
X81137800Y-95052500D02*
X96662200Y-95052500D01*
X78795300Y-92710000D02*
X81137800Y-95052500D01*
X77470000Y-92710000D02*
X78795300Y-92710000D01*
X100330000Y-92710000D02*
X99004700Y-92710000D01*
X68580000Y-87630000D02*
X54610000Y-87630000D01*
X91440000Y-41910000D02*
X77470000Y-41910000D01*
X91440000Y-64770000D02*
X77470000Y-64770000D01*
X91440000Y-87630000D02*
X77470000Y-87630000D01*
X114300000Y-41910000D02*
X100330000Y-41910000D01*
X114300000Y-64770000D02*
X100330000Y-64770000D01*
X114300000Y-87630000D02*
X100330000Y-87630000D01*
X137160000Y-41910000D02*
X123190000Y-41910000D01*
X137160000Y-87630000D02*
X123190000Y-87630000D01*
X64559500Y-44450000D02*
X85090000Y-44450000D01*
X63134200Y-45875300D02*
X64559500Y-44450000D01*
X56146100Y-45875300D02*
X63134200Y-45875300D01*
X55935400Y-45664600D02*
X56146100Y-45875300D01*
X52729800Y-45664600D02*
X55935400Y-45664600D01*
X52674400Y-45720000D02*
X52729800Y-45664600D01*
X40640000Y-45720000D02*
X52674400Y-45720000D01*
X34290000Y-52070000D02*
X40640000Y-45720000D01*
X96520000Y-55880000D02*
X107950000Y-44450000D01*
X35560000Y-55880000D02*
X96520000Y-55880000D01*
X34290000Y-54610000D02*
X35560000Y-55880000D01*
X130810000Y-49529600D02*
X130810000Y-44450000D01*
X121919800Y-58419800D02*
X130810000Y-49529600D01*
X35559800Y-58419800D02*
X121919800Y-58419800D01*
X34290000Y-57150000D02*
X35559800Y-58419800D01*
X121919800Y-58419800D02*
X130810000Y-67310000D01*
X46990000Y-44450000D02*
X34290000Y-44450000D01*
X49530000Y-41910000D02*
X46990000Y-44450000D01*
D16*
G36*
X145340000Y-103430000D02*
X29920000Y-103430000D01*
X29920000Y-93231834D01*
X38004543Y-93231834D01*
X38404853Y-94200658D01*
X39145443Y-94942542D01*
X40113567Y-95344542D01*
X41161834Y-95345457D01*
X42130658Y-94945147D01*
X42872542Y-94204557D01*
X43274542Y-93236433D01*
X43275457Y-92188166D01*
X43077883Y-91710000D01*
X52962560Y-91710000D01*
X52962560Y-93710000D01*
X53006838Y-93945317D01*
X53145910Y-94161441D01*
X53358110Y-94306431D01*
X53610000Y-94357440D01*
X55610000Y-94357440D01*
X55845317Y-94313162D01*
X56061441Y-94174090D01*
X56206431Y-93961890D01*
X56257440Y-93710000D01*
X56257440Y-93231834D01*
X63404543Y-93231834D01*
X63804853Y-94200658D01*
X64545443Y-94942542D01*
X65513567Y-95344542D01*
X66561834Y-95345457D01*
X67530658Y-94945147D01*
X68272542Y-94204557D01*
X68674542Y-93236433D01*
X68675457Y-92188166D01*
X68477883Y-91710000D01*
X75822560Y-91710000D01*
X75822560Y-93710000D01*
X75866838Y-93945317D01*
X76005910Y-94161441D01*
X76218110Y-94306431D01*
X76470000Y-94357440D01*
X78470000Y-94357440D01*
X78705317Y-94313162D01*
X78921441Y-94174090D01*
X79028257Y-94017759D01*
X80600399Y-95589901D01*
X80846960Y-95754648D01*
X81137800Y-95812500D01*
X96662200Y-95812500D01*
X96953039Y-95754648D01*
X97199601Y-95589901D01*
X98772784Y-94016718D01*
X98865910Y-94161441D01*
X99078110Y-94306431D01*
X99330000Y-94357440D01*
X101330000Y-94357440D01*
X101565317Y-94313162D01*
X101781441Y-94174090D01*
X101888257Y-94017759D01*
X103448999Y-95578501D01*
X103695560Y-95743248D01*
X103986400Y-95801100D01*
X119533600Y-95801100D01*
X119824439Y-95743248D01*
X120071001Y-95578501D01*
X121632784Y-94016718D01*
X121725910Y-94161441D01*
X121938110Y-94306431D01*
X122190000Y-94357440D01*
X124190000Y-94357440D01*
X124425317Y-94313162D01*
X124641441Y-94174090D01*
X124786431Y-93961890D01*
X124837440Y-93710000D01*
X124837440Y-93231834D01*
X131984543Y-93231834D01*
X132384853Y-94200658D01*
X133125443Y-94942542D01*
X134093567Y-95344542D01*
X135141834Y-95345457D01*
X136110658Y-94945147D01*
X136852542Y-94204557D01*
X137254542Y-93236433D01*
X137255457Y-92188166D01*
X136855147Y-91219342D01*
X136114557Y-90477458D01*
X135146433Y-90075458D01*
X134098166Y-90074543D01*
X133129342Y-90474853D01*
X132387458Y-91215443D01*
X131985458Y-92183567D01*
X131984543Y-93231834D01*
X124837440Y-93231834D01*
X124837440Y-91710000D01*
X124793162Y-91474683D01*
X124654090Y-91258559D01*
X124441890Y-91113569D01*
X124190000Y-91062560D01*
X122190000Y-91062560D01*
X121954683Y-91106838D01*
X121738559Y-91245910D01*
X121593569Y-91458110D01*
X121542560Y-91710000D01*
X121542560Y-92028766D01*
X121327299Y-92172599D01*
X119218798Y-94281100D01*
X113915865Y-94281100D01*
X113992542Y-94204557D01*
X114394542Y-93236433D01*
X114395457Y-92188166D01*
X113995147Y-91219342D01*
X113290635Y-90513599D01*
X129074699Y-90513599D01*
X129338281Y-91151515D01*
X129825918Y-91640004D01*
X130463373Y-91904699D01*
X131153599Y-91905301D01*
X131791515Y-91641719D01*
X132280004Y-91154082D01*
X132544699Y-90516627D01*
X132545301Y-89826401D01*
X132281719Y-89188485D01*
X131794082Y-88699996D01*
X131156627Y-88435301D01*
X130466401Y-88434699D01*
X129828485Y-88698281D01*
X129339996Y-89185918D01*
X129075301Y-89823373D01*
X129074699Y-90513599D01*
X113290635Y-90513599D01*
X113254557Y-90477458D01*
X112286433Y-90075458D01*
X111238166Y-90074543D01*
X110269342Y-90474853D01*
X109527458Y-91215443D01*
X109125458Y-92183567D01*
X109124543Y-93231834D01*
X109524853Y-94200658D01*
X109605155Y-94281100D01*
X104301202Y-94281100D01*
X102192701Y-92172599D01*
X101977440Y-92028767D01*
X101977440Y-91710000D01*
X101933162Y-91474683D01*
X101794090Y-91258559D01*
X101581890Y-91113569D01*
X101330000Y-91062560D01*
X99330000Y-91062560D01*
X99094683Y-91106838D01*
X98878559Y-91245910D01*
X98733569Y-91458110D01*
X98682560Y-91710000D01*
X98682560Y-92028766D01*
X98467299Y-92172599D01*
X96347398Y-94292500D01*
X91044445Y-94292500D01*
X91132542Y-94204557D01*
X91534542Y-93236433D01*
X91535457Y-92188166D01*
X91135147Y-91219342D01*
X90430635Y-90513599D01*
X106214699Y-90513599D01*
X106478281Y-91151515D01*
X106965918Y-91640004D01*
X107603373Y-91904699D01*
X108293599Y-91905301D01*
X108931515Y-91641719D01*
X109420004Y-91154082D01*
X109684699Y-90516627D01*
X109685301Y-89826401D01*
X109421719Y-89188485D01*
X108934082Y-88699996D01*
X108296627Y-88435301D01*
X107606401Y-88434699D01*
X106968485Y-88698281D01*
X106479996Y-89185918D01*
X106215301Y-89823373D01*
X106214699Y-90513599D01*
X90430635Y-90513599D01*
X90394557Y-90477458D01*
X89426433Y-90075458D01*
X88378166Y-90074543D01*
X87409342Y-90474853D01*
X86667458Y-91215443D01*
X86265458Y-92183567D01*
X86264543Y-93231834D01*
X86664853Y-94200658D01*
X86756535Y-94292500D01*
X81452602Y-94292500D01*
X79332701Y-92172599D01*
X79117440Y-92028767D01*
X79117440Y-91710000D01*
X79073162Y-91474683D01*
X78934090Y-91258559D01*
X78721890Y-91113569D01*
X78470000Y-91062560D01*
X76470000Y-91062560D01*
X76234683Y-91106838D01*
X76018559Y-91245910D01*
X75873569Y-91458110D01*
X75822560Y-91710000D01*
X68477883Y-91710000D01*
X68275147Y-91219342D01*
X67570635Y-90513599D01*
X83354699Y-90513599D01*
X83618281Y-91151515D01*
X84105918Y-91640004D01*
X84743373Y-91904699D01*
X85433599Y-91905301D01*
X86071515Y-91641719D01*
X86560004Y-91154082D01*
X86824699Y-90516627D01*
X86825301Y-89826401D01*
X86561719Y-89188485D01*
X86074082Y-88699996D01*
X85436627Y-88435301D01*
X84746401Y-88434699D01*
X84108485Y-88698281D01*
X83619996Y-89185918D01*
X83355301Y-89823373D01*
X83354699Y-90513599D01*
X67570635Y-90513599D01*
X67534557Y-90477458D01*
X66566433Y-90075458D01*
X65518166Y-90074543D01*
X64549342Y-90474853D01*
X63807458Y-91215443D01*
X63405458Y-92183567D01*
X63404543Y-93231834D01*
X56257440Y-93231834D01*
X56257440Y-91710000D01*
X56213162Y-91474683D01*
X56074090Y-91258559D01*
X55861890Y-91113569D01*
X55610000Y-91062560D01*
X53610000Y-91062560D01*
X53374683Y-91106838D01*
X53158559Y-91245910D01*
X53013569Y-91458110D01*
X52962560Y-91710000D01*
X43077883Y-91710000D01*
X42875147Y-91219342D01*
X42170635Y-90513599D01*
X60494699Y-90513599D01*
X60758281Y-91151515D01*
X61245918Y-91640004D01*
X61883373Y-91904699D01*
X62573599Y-91905301D01*
X63211515Y-91641719D01*
X63700004Y-91154082D01*
X63964699Y-90516627D01*
X63965301Y-89826401D01*
X63701719Y-89188485D01*
X63214082Y-88699996D01*
X62576627Y-88435301D01*
X61886401Y-88434699D01*
X61248485Y-88698281D01*
X60759996Y-89185918D01*
X60495301Y-89823373D01*
X60494699Y-90513599D01*
X42170635Y-90513599D01*
X42134557Y-90477458D01*
X41166433Y-90075458D01*
X40118166Y-90074543D01*
X39149342Y-90474853D01*
X38407458Y-91215443D01*
X38005458Y-92183567D01*
X38004543Y-93231834D01*
X29920000Y-93231834D01*
X29920000Y-90513599D01*
X35094699Y-90513599D01*
X35358281Y-91151515D01*
X35845918Y-91640004D01*
X36483373Y-91904699D01*
X37173599Y-91905301D01*
X37811515Y-91641719D01*
X38300004Y-91154082D01*
X38564699Y-90516627D01*
X38565301Y-89826401D01*
X38301719Y-89188485D01*
X37814082Y-88699996D01*
X37176627Y-88435301D01*
X36486401Y-88434699D01*
X35848485Y-88698281D01*
X35359996Y-89185918D01*
X35095301Y-89823373D01*
X35094699Y-90513599D01*
X29920000Y-90513599D01*
X29920000Y-87973599D01*
X41444699Y-87973599D01*
X41708281Y-88611515D01*
X42195918Y-89100004D01*
X42833373Y-89364699D01*
X43523599Y-89365301D01*
X44161515Y-89101719D01*
X44650004Y-88614082D01*
X44914699Y-87976627D01*
X44915029Y-87597968D01*
X52975000Y-87597968D01*
X52975000Y-87662032D01*
X53099457Y-88287719D01*
X53453880Y-88818152D01*
X53984313Y-89172575D01*
X54610000Y-89297032D01*
X55235687Y-89172575D01*
X55766120Y-88818152D01*
X56052201Y-88390000D01*
X67016753Y-88390000D01*
X67108281Y-88611515D01*
X67595918Y-89100004D01*
X68233373Y-89364699D01*
X68923599Y-89365301D01*
X69561515Y-89101719D01*
X70050004Y-88614082D01*
X70314699Y-87976627D01*
X70315029Y-87597968D01*
X75835000Y-87597968D01*
X75835000Y-87662032D01*
X75959457Y-88287719D01*
X76313880Y-88818152D01*
X76844313Y-89172575D01*
X77470000Y-89297032D01*
X78095687Y-89172575D01*
X78626120Y-88818152D01*
X78912201Y-88390000D01*
X89876753Y-88390000D01*
X89968281Y-88611515D01*
X90455918Y-89100004D01*
X91093373Y-89364699D01*
X91783599Y-89365301D01*
X92421515Y-89101719D01*
X92910004Y-88614082D01*
X93174699Y-87976627D01*
X93175029Y-87597968D01*
X98695000Y-87597968D01*
X98695000Y-87662032D01*
X98819457Y-88287719D01*
X99173880Y-88818152D01*
X99704313Y-89172575D01*
X100330000Y-89297032D01*
X100955687Y-89172575D01*
X101486120Y-88818152D01*
X101772201Y-88390000D01*
X112736753Y-88390000D01*
X112828281Y-88611515D01*
X113315918Y-89100004D01*
X113953373Y-89364699D01*
X114643599Y-89365301D01*
X115281515Y-89101719D01*
X115770004Y-88614082D01*
X116034699Y-87976627D01*
X116035029Y-87597968D01*
X121555000Y-87597968D01*
X121555000Y-87662032D01*
X121679457Y-88287719D01*
X122033880Y-88818152D01*
X122564313Y-89172575D01*
X123190000Y-89297032D01*
X123815687Y-89172575D01*
X124346120Y-88818152D01*
X124632201Y-88390000D01*
X135596753Y-88390000D01*
X135688281Y-88611515D01*
X136175918Y-89100004D01*
X136813373Y-89364699D01*
X137503599Y-89365301D01*
X138141515Y-89101719D01*
X138630004Y-88614082D01*
X138894699Y-87976627D01*
X138895301Y-87286401D01*
X138631719Y-86648485D01*
X138144082Y-86159996D01*
X137506627Y-85895301D01*
X136816401Y-85894699D01*
X136178485Y-86158281D01*
X135689996Y-86645918D01*
X135596949Y-86870000D01*
X124632201Y-86870000D01*
X124346120Y-86441848D01*
X123815687Y-86087425D01*
X123190000Y-85962968D01*
X122564313Y-86087425D01*
X122033880Y-86441848D01*
X121679457Y-86972281D01*
X121555000Y-87597968D01*
X116035029Y-87597968D01*
X116035301Y-87286401D01*
X115771719Y-86648485D01*
X115284082Y-86159996D01*
X114646627Y-85895301D01*
X113956401Y-85894699D01*
X113318485Y-86158281D01*
X112829996Y-86645918D01*
X112736949Y-86870000D01*
X101772201Y-86870000D01*
X101486120Y-86441848D01*
X100955687Y-86087425D01*
X100330000Y-85962968D01*
X99704313Y-86087425D01*
X99173880Y-86441848D01*
X98819457Y-86972281D01*
X98695000Y-87597968D01*
X93175029Y-87597968D01*
X93175301Y-87286401D01*
X92911719Y-86648485D01*
X92424082Y-86159996D01*
X91786627Y-85895301D01*
X91096401Y-85894699D01*
X90458485Y-86158281D01*
X89969996Y-86645918D01*
X89876949Y-86870000D01*
X78912201Y-86870000D01*
X78626120Y-86441848D01*
X78095687Y-86087425D01*
X77470000Y-85962968D01*
X76844313Y-86087425D01*
X76313880Y-86441848D01*
X75959457Y-86972281D01*
X75835000Y-87597968D01*
X70315029Y-87597968D01*
X70315301Y-87286401D01*
X70051719Y-86648485D01*
X69564082Y-86159996D01*
X68926627Y-85895301D01*
X68236401Y-85894699D01*
X67598485Y-86158281D01*
X67109996Y-86645918D01*
X67016949Y-86870000D01*
X56052201Y-86870000D01*
X55766120Y-86441848D01*
X55235687Y-86087425D01*
X54610000Y-85962968D01*
X53984313Y-86087425D01*
X53453880Y-86441848D01*
X53099457Y-86972281D01*
X52975000Y-87597968D01*
X44915029Y-87597968D01*
X44915301Y-87286401D01*
X44651719Y-86648485D01*
X44164082Y-86159996D01*
X43526627Y-85895301D01*
X42836401Y-85894699D01*
X42198485Y-86158281D01*
X41709996Y-86645918D01*
X41445301Y-87283373D01*
X41444699Y-87973599D01*
X29920000Y-87973599D01*
X29920000Y-75200000D01*
X36452560Y-75200000D01*
X36452560Y-77200000D01*
X36496838Y-77435317D01*
X36635910Y-77651441D01*
X36848110Y-77796431D01*
X37100000Y-77847440D01*
X39100000Y-77847440D01*
X39335317Y-77803162D01*
X39551441Y-77664090D01*
X39696431Y-77451890D01*
X39747440Y-77200000D01*
X39747440Y-76200000D01*
X41512968Y-76200000D01*
X41637425Y-76825687D01*
X41991848Y-77356120D01*
X42522281Y-77710543D01*
X43147968Y-77835000D01*
X43212032Y-77835000D01*
X43837719Y-77710543D01*
X44368152Y-77356120D01*
X44722575Y-76825687D01*
X44847032Y-76200000D01*
X44722575Y-75574313D01*
X44368152Y-75043880D01*
X43837719Y-74689457D01*
X43212032Y-74565000D01*
X43147968Y-74565000D01*
X42522281Y-74689457D01*
X41991848Y-75043880D01*
X41637425Y-75574313D01*
X41512968Y-76200000D01*
X39747440Y-76200000D01*
X39747440Y-75200000D01*
X39703162Y-74964683D01*
X39564090Y-74748559D01*
X39351890Y-74603569D01*
X39100000Y-74552560D01*
X37100000Y-74552560D01*
X36864683Y-74596838D01*
X36648559Y-74735910D01*
X36503569Y-74948110D01*
X36452560Y-75200000D01*
X29920000Y-75200000D01*
X29920000Y-49841873D01*
X32714927Y-49841873D01*
X32954171Y-50420887D01*
X33332896Y-50800273D01*
X32955728Y-51176783D01*
X32715474Y-51755379D01*
X32714927Y-52381873D01*
X32954171Y-52960887D01*
X33332896Y-53340273D01*
X32955728Y-53716783D01*
X32715474Y-54295379D01*
X32714927Y-54921873D01*
X32954171Y-55500887D01*
X33332896Y-55880273D01*
X32955728Y-56256783D01*
X32715474Y-56835379D01*
X32714927Y-57461873D01*
X32954171Y-58040887D01*
X33332896Y-58420273D01*
X32955728Y-58796783D01*
X32715474Y-59375379D01*
X32714927Y-60001873D01*
X32954171Y-60580887D01*
X33332896Y-60960273D01*
X32955728Y-61336783D01*
X32715474Y-61915379D01*
X32714927Y-62541873D01*
X32954171Y-63120887D01*
X33332896Y-63500273D01*
X32955728Y-63876783D01*
X32715474Y-64455379D01*
X32714927Y-65081873D01*
X32954171Y-65660887D01*
X33332896Y-66040273D01*
X32955728Y-66416783D01*
X32715474Y-66995379D01*
X32714927Y-67621873D01*
X32954171Y-68200887D01*
X33396783Y-68644272D01*
X33975379Y-68884526D01*
X34601873Y-68885073D01*
X35180887Y-68645829D01*
X35624272Y-68203217D01*
X35864526Y-67624621D01*
X35865073Y-66998127D01*
X35625829Y-66419113D01*
X35247104Y-66039727D01*
X35624272Y-65663217D01*
X35864526Y-65084621D01*
X35865073Y-64458127D01*
X35625829Y-63879113D01*
X35247104Y-63499727D01*
X35624272Y-63123217D01*
X35864526Y-62544621D01*
X35865073Y-61918127D01*
X35625829Y-61339113D01*
X35247104Y-60959727D01*
X35624272Y-60583217D01*
X35864526Y-60004621D01*
X35865073Y-59378127D01*
X35783126Y-59179800D01*
X48036685Y-59179800D01*
X47955474Y-59375379D01*
X47954927Y-60001873D01*
X48194171Y-60580887D01*
X48572896Y-60960273D01*
X48195728Y-61336783D01*
X47955474Y-61915379D01*
X47954927Y-62541873D01*
X48194171Y-63120887D01*
X48572896Y-63500273D01*
X48195728Y-63876783D01*
X47955474Y-64455379D01*
X47954927Y-65081873D01*
X48194171Y-65660887D01*
X48572896Y-66040273D01*
X48195728Y-66416783D01*
X47955474Y-66995379D01*
X47954927Y-67621873D01*
X48194171Y-68200887D01*
X48636783Y-68644272D01*
X49215379Y-68884526D01*
X49841873Y-68885073D01*
X49926756Y-68850000D01*
X52962560Y-68850000D01*
X52962560Y-70850000D01*
X53006838Y-71085317D01*
X53145910Y-71301441D01*
X53358110Y-71446431D01*
X53610000Y-71497440D01*
X55610000Y-71497440D01*
X55845317Y-71453162D01*
X56061441Y-71314090D01*
X56168257Y-71157759D01*
X57751899Y-72741401D01*
X57998461Y-72906148D01*
X58289300Y-72964000D01*
X73790700Y-72964000D01*
X74081539Y-72906148D01*
X74328101Y-72741401D01*
X75912784Y-71156718D01*
X76005910Y-71301441D01*
X76218110Y-71446431D01*
X76470000Y-71497440D01*
X78470000Y-71497440D01*
X78705317Y-71453162D01*
X78921441Y-71314090D01*
X79028257Y-71157759D01*
X80611899Y-72741401D01*
X80858461Y-72906148D01*
X81149300Y-72964000D01*
X96650700Y-72964000D01*
X96941539Y-72906148D01*
X97188101Y-72741401D01*
X98772784Y-71156718D01*
X98865910Y-71301441D01*
X99078110Y-71446431D01*
X99330000Y-71497440D01*
X101330000Y-71497440D01*
X101565317Y-71453162D01*
X101781441Y-71314090D01*
X101888257Y-71157759D01*
X103471899Y-72741401D01*
X103718461Y-72906148D01*
X104009300Y-72964000D01*
X119510700Y-72964000D01*
X119801539Y-72906148D01*
X120048101Y-72741401D01*
X121632784Y-71156718D01*
X121725910Y-71301441D01*
X121938110Y-71446431D01*
X122190000Y-71497440D01*
X124190000Y-71497440D01*
X124425317Y-71453162D01*
X124641441Y-71314090D01*
X124786431Y-71101890D01*
X124837440Y-70850000D01*
X124837440Y-70371834D01*
X131984543Y-70371834D01*
X132384853Y-71340658D01*
X133125443Y-72082542D01*
X134093567Y-72484542D01*
X135141834Y-72485457D01*
X136110658Y-72085147D01*
X136852542Y-71344557D01*
X137254542Y-70376433D01*
X137255457Y-69328166D01*
X136855147Y-68359342D01*
X136114557Y-67617458D01*
X135146433Y-67215458D01*
X134098166Y-67214543D01*
X133129342Y-67614853D01*
X132387458Y-68355443D01*
X131985458Y-69323567D01*
X131984543Y-70371834D01*
X124837440Y-70371834D01*
X124837440Y-68850000D01*
X124793162Y-68614683D01*
X124654090Y-68398559D01*
X124441890Y-68253569D01*
X124190000Y-68202560D01*
X122190000Y-68202560D01*
X121954683Y-68246838D01*
X121738559Y-68385910D01*
X121593569Y-68598110D01*
X121542560Y-68850000D01*
X121542560Y-69168767D01*
X121327299Y-69312599D01*
X119195898Y-71444000D01*
X113892925Y-71444000D01*
X113992542Y-71344557D01*
X114394542Y-70376433D01*
X114395457Y-69328166D01*
X113995147Y-68359342D01*
X113254557Y-67617458D01*
X112286433Y-67215458D01*
X111238166Y-67214543D01*
X110269342Y-67614853D01*
X109527458Y-68355443D01*
X109125458Y-69323567D01*
X109124543Y-70371834D01*
X109524853Y-71340658D01*
X109628015Y-71444000D01*
X104324102Y-71444000D01*
X102192701Y-69312599D01*
X101977440Y-69168767D01*
X101977440Y-68850000D01*
X101933162Y-68614683D01*
X101794090Y-68398559D01*
X101581890Y-68253569D01*
X101330000Y-68202560D01*
X99330000Y-68202560D01*
X99094683Y-68246838D01*
X98878559Y-68385910D01*
X98733569Y-68598110D01*
X98682560Y-68850000D01*
X98682560Y-69168767D01*
X98467299Y-69312599D01*
X96335898Y-71444000D01*
X91032925Y-71444000D01*
X91132542Y-71344557D01*
X91534542Y-70376433D01*
X91535457Y-69328166D01*
X91135147Y-68359342D01*
X90430635Y-67653599D01*
X106214699Y-67653599D01*
X106478281Y-68291515D01*
X106965918Y-68780004D01*
X107603373Y-69044699D01*
X108293599Y-69045301D01*
X108931515Y-68781719D01*
X109420004Y-68294082D01*
X109684699Y-67656627D01*
X109685301Y-66966401D01*
X109421719Y-66328485D01*
X108934082Y-65839996D01*
X108296627Y-65575301D01*
X107606401Y-65574699D01*
X106968485Y-65838281D01*
X106479996Y-66325918D01*
X106215301Y-66963373D01*
X106214699Y-67653599D01*
X90430635Y-67653599D01*
X90394557Y-67617458D01*
X89426433Y-67215458D01*
X88378166Y-67214543D01*
X87409342Y-67614853D01*
X86667458Y-68355443D01*
X86265458Y-69323567D01*
X86264543Y-70371834D01*
X86664853Y-71340658D01*
X86768015Y-71444000D01*
X81464102Y-71444000D01*
X79332701Y-69312599D01*
X79117440Y-69168767D01*
X79117440Y-68850000D01*
X79073162Y-68614683D01*
X78934090Y-68398559D01*
X78721890Y-68253569D01*
X78470000Y-68202560D01*
X76470000Y-68202560D01*
X76234683Y-68246838D01*
X76018559Y-68385910D01*
X75873569Y-68598110D01*
X75822560Y-68850000D01*
X75822560Y-69168767D01*
X75607299Y-69312599D01*
X73475898Y-71444000D01*
X68172925Y-71444000D01*
X68272542Y-71344557D01*
X68674542Y-70376433D01*
X68675457Y-69328166D01*
X68275147Y-68359342D01*
X67570635Y-67653599D01*
X83354699Y-67653599D01*
X83618281Y-68291515D01*
X84105918Y-68780004D01*
X84743373Y-69044699D01*
X85433599Y-69045301D01*
X86071515Y-68781719D01*
X86560004Y-68294082D01*
X86824699Y-67656627D01*
X86825301Y-66966401D01*
X86561719Y-66328485D01*
X86074082Y-65839996D01*
X85436627Y-65575301D01*
X84746401Y-65574699D01*
X84108485Y-65838281D01*
X83619996Y-66325918D01*
X83355301Y-66963373D01*
X83354699Y-67653599D01*
X67570635Y-67653599D01*
X67534557Y-67617458D01*
X66566433Y-67215458D01*
X65518166Y-67214543D01*
X64549342Y-67614853D01*
X63807458Y-68355443D01*
X63405458Y-69323567D01*
X63404543Y-70371834D01*
X63804853Y-71340658D01*
X63908015Y-71444000D01*
X58604102Y-71444000D01*
X56472701Y-69312599D01*
X56257440Y-69168767D01*
X56257440Y-68850000D01*
X56213162Y-68614683D01*
X56074090Y-68398559D01*
X55861890Y-68253569D01*
X55610000Y-68202560D01*
X53610000Y-68202560D01*
X53374683Y-68246838D01*
X53158559Y-68385910D01*
X53013569Y-68598110D01*
X52962560Y-68850000D01*
X49926756Y-68850000D01*
X50420887Y-68645829D01*
X50864272Y-68203217D01*
X51092493Y-67653599D01*
X60494699Y-67653599D01*
X60758281Y-68291515D01*
X61245918Y-68780004D01*
X61883373Y-69044699D01*
X62573599Y-69045301D01*
X63211515Y-68781719D01*
X63700004Y-68294082D01*
X63964699Y-67656627D01*
X63965301Y-66966401D01*
X63701719Y-66328485D01*
X63214082Y-65839996D01*
X62576627Y-65575301D01*
X61886401Y-65574699D01*
X61248485Y-65838281D01*
X60759996Y-66325918D01*
X60495301Y-66963373D01*
X60494699Y-67653599D01*
X51092493Y-67653599D01*
X51104526Y-67624621D01*
X51105073Y-66998127D01*
X50865829Y-66419113D01*
X50487104Y-66039727D01*
X50864272Y-65663217D01*
X51104526Y-65084621D01*
X51104828Y-64737968D01*
X52975000Y-64737968D01*
X52975000Y-64802032D01*
X53099457Y-65427719D01*
X53453880Y-65958152D01*
X53984313Y-66312575D01*
X54610000Y-66437032D01*
X55235687Y-66312575D01*
X55766120Y-65958152D01*
X56052201Y-65530000D01*
X67016753Y-65530000D01*
X67108281Y-65751515D01*
X67595918Y-66240004D01*
X68233373Y-66504699D01*
X68923599Y-66505301D01*
X69561515Y-66241719D01*
X70050004Y-65754082D01*
X70314699Y-65116627D01*
X70315029Y-64737968D01*
X75835000Y-64737968D01*
X75835000Y-64802032D01*
X75959457Y-65427719D01*
X76313880Y-65958152D01*
X76844313Y-66312575D01*
X77470000Y-66437032D01*
X78095687Y-66312575D01*
X78626120Y-65958152D01*
X78912201Y-65530000D01*
X89876753Y-65530000D01*
X89968281Y-65751515D01*
X90455918Y-66240004D01*
X91093373Y-66504699D01*
X91783599Y-66505301D01*
X92421515Y-66241719D01*
X92910004Y-65754082D01*
X93174699Y-65116627D01*
X93175029Y-64737968D01*
X98695000Y-64737968D01*
X98695000Y-64802032D01*
X98819457Y-65427719D01*
X99173880Y-65958152D01*
X99704313Y-66312575D01*
X100330000Y-66437032D01*
X100955687Y-66312575D01*
X101486120Y-65958152D01*
X101772201Y-65530000D01*
X112736753Y-65530000D01*
X112828281Y-65751515D01*
X113315918Y-66240004D01*
X113953373Y-66504699D01*
X114643599Y-66505301D01*
X115281515Y-66241719D01*
X115770004Y-65754082D01*
X116034699Y-65116627D01*
X116035029Y-64737968D01*
X121555000Y-64737968D01*
X121555000Y-64802032D01*
X121679457Y-65427719D01*
X122033880Y-65958152D01*
X122564313Y-66312575D01*
X123190000Y-66437032D01*
X123815687Y-66312575D01*
X124346120Y-65958152D01*
X124700543Y-65427719D01*
X124825000Y-64802032D01*
X124825000Y-64737968D01*
X124700543Y-64112281D01*
X124346120Y-63581848D01*
X123815687Y-63227425D01*
X123190000Y-63102968D01*
X122564313Y-63227425D01*
X122033880Y-63581848D01*
X121679457Y-64112281D01*
X121555000Y-64737968D01*
X116035029Y-64737968D01*
X116035301Y-64426401D01*
X115771719Y-63788485D01*
X115284082Y-63299996D01*
X114646627Y-63035301D01*
X113956401Y-63034699D01*
X113318485Y-63298281D01*
X112829996Y-63785918D01*
X112736949Y-64010000D01*
X101772201Y-64010000D01*
X101486120Y-63581848D01*
X100955687Y-63227425D01*
X100330000Y-63102968D01*
X99704313Y-63227425D01*
X99173880Y-63581848D01*
X98819457Y-64112281D01*
X98695000Y-64737968D01*
X93175029Y-64737968D01*
X93175301Y-64426401D01*
X92911719Y-63788485D01*
X92424082Y-63299996D01*
X91786627Y-63035301D01*
X91096401Y-63034699D01*
X90458485Y-63298281D01*
X89969996Y-63785918D01*
X89876949Y-64010000D01*
X78912201Y-64010000D01*
X78626120Y-63581848D01*
X78095687Y-63227425D01*
X77470000Y-63102968D01*
X76844313Y-63227425D01*
X76313880Y-63581848D01*
X75959457Y-64112281D01*
X75835000Y-64737968D01*
X70315029Y-64737968D01*
X70315301Y-64426401D01*
X70051719Y-63788485D01*
X69564082Y-63299996D01*
X68926627Y-63035301D01*
X68236401Y-63034699D01*
X67598485Y-63298281D01*
X67109996Y-63785918D01*
X67016949Y-64010000D01*
X56052201Y-64010000D01*
X55766120Y-63581848D01*
X55235687Y-63227425D01*
X54610000Y-63102968D01*
X53984313Y-63227425D01*
X53453880Y-63581848D01*
X53099457Y-64112281D01*
X52975000Y-64737968D01*
X51104828Y-64737968D01*
X51105073Y-64458127D01*
X50865829Y-63879113D01*
X50487104Y-63499727D01*
X50864272Y-63123217D01*
X51104526Y-62544621D01*
X51105073Y-61918127D01*
X50865829Y-61339113D01*
X50487104Y-60959727D01*
X50864272Y-60583217D01*
X51104526Y-60004621D01*
X51105073Y-59378127D01*
X51023126Y-59179800D01*
X121604998Y-59179800D01*
X129167216Y-66742018D01*
X129075301Y-66963373D01*
X129074699Y-67653599D01*
X129338281Y-68291515D01*
X129825918Y-68780004D01*
X130463373Y-69044699D01*
X131153599Y-69045301D01*
X131791515Y-68781719D01*
X132280004Y-68294082D01*
X132544699Y-67656627D01*
X132545301Y-66966401D01*
X132281719Y-66328485D01*
X131794082Y-65839996D01*
X131156627Y-65575301D01*
X130466401Y-65574699D01*
X130242157Y-65667355D01*
X129688401Y-65113599D01*
X135424699Y-65113599D01*
X135688281Y-65751515D01*
X136175918Y-66240004D01*
X136813373Y-66504699D01*
X137503599Y-66505301D01*
X138141515Y-66241719D01*
X138630004Y-65754082D01*
X138894699Y-65116627D01*
X138895301Y-64426401D01*
X138631719Y-63788485D01*
X138144082Y-63299996D01*
X137506627Y-63035301D01*
X136816401Y-63034699D01*
X136178485Y-63298281D01*
X135689996Y-63785918D01*
X135425301Y-64423373D01*
X135424699Y-65113599D01*
X129688401Y-65113599D01*
X122994602Y-58419800D01*
X131347401Y-50067001D01*
X131512148Y-49820440D01*
X131521746Y-49772186D01*
X131570000Y-49529600D01*
X131570000Y-47511834D01*
X131984543Y-47511834D01*
X132384853Y-48480658D01*
X133125443Y-49222542D01*
X134093567Y-49624542D01*
X135141834Y-49625457D01*
X136110658Y-49225147D01*
X136852542Y-48484557D01*
X137254542Y-47516433D01*
X137255457Y-46468166D01*
X136855147Y-45499342D01*
X136114557Y-44757458D01*
X135146433Y-44355458D01*
X134098166Y-44354543D01*
X133129342Y-44754853D01*
X132387458Y-45495443D01*
X131985458Y-46463567D01*
X131984543Y-47511834D01*
X131570000Y-47511834D01*
X131570000Y-46013247D01*
X131791515Y-45921719D01*
X132280004Y-45434082D01*
X132544699Y-44796627D01*
X132545301Y-44106401D01*
X132281719Y-43468485D01*
X131794082Y-42979996D01*
X131156627Y-42715301D01*
X130466401Y-42714699D01*
X129828485Y-42978281D01*
X129339996Y-43465918D01*
X129075301Y-44103373D01*
X129074699Y-44793599D01*
X129338281Y-45431515D01*
X129825918Y-45920004D01*
X130050000Y-46013051D01*
X130050000Y-49214798D01*
X121604998Y-57659800D01*
X51023481Y-57659800D01*
X51104526Y-57464621D01*
X51105073Y-56838127D01*
X51023208Y-56640000D01*
X96520000Y-56640000D01*
X96810839Y-56582148D01*
X97057401Y-56417401D01*
X105962968Y-47511834D01*
X109124543Y-47511834D01*
X109524853Y-48480658D01*
X110265443Y-49222542D01*
X111233567Y-49624542D01*
X112281834Y-49625457D01*
X113250658Y-49225147D01*
X113992542Y-48484557D01*
X114394542Y-47516433D01*
X114395457Y-46468166D01*
X113995147Y-45499342D01*
X113254557Y-44757458D01*
X112286433Y-44355458D01*
X111238166Y-44354543D01*
X110269342Y-44754853D01*
X109527458Y-45495443D01*
X109125458Y-46463567D01*
X109124543Y-47511834D01*
X105962968Y-47511834D01*
X107382018Y-46092784D01*
X107603373Y-46184699D01*
X108293599Y-46185301D01*
X108931515Y-45921719D01*
X109420004Y-45434082D01*
X109684699Y-44796627D01*
X109685301Y-44106401D01*
X109530643Y-43732100D01*
X112507298Y-43732100D01*
X116302599Y-47527401D01*
X116549161Y-47692148D01*
X116840000Y-47750000D01*
X121542560Y-47750000D01*
X121542560Y-47990000D01*
X121586838Y-48225317D01*
X121725910Y-48441441D01*
X121938110Y-48586431D01*
X122190000Y-48637440D01*
X124190000Y-48637440D01*
X124425317Y-48593162D01*
X124641441Y-48454090D01*
X124786431Y-48241890D01*
X124837440Y-47990000D01*
X124837440Y-45990000D01*
X124793162Y-45754683D01*
X124654090Y-45538559D01*
X124441890Y-45393569D01*
X124190000Y-45342560D01*
X122190000Y-45342560D01*
X121954683Y-45386838D01*
X121738559Y-45525910D01*
X121593569Y-45738110D01*
X121542560Y-45990000D01*
X121542560Y-46230000D01*
X117154802Y-46230000D01*
X114570039Y-43645237D01*
X114643599Y-43645301D01*
X115281515Y-43381719D01*
X115770004Y-42894082D01*
X116034699Y-42256627D01*
X116035029Y-41877968D01*
X121555000Y-41877968D01*
X121555000Y-41942032D01*
X121679457Y-42567719D01*
X122033880Y-43098152D01*
X122564313Y-43452575D01*
X123190000Y-43577032D01*
X123815687Y-43452575D01*
X124346120Y-43098152D01*
X124632201Y-42670000D01*
X135596753Y-42670000D01*
X135688281Y-42891515D01*
X136175918Y-43380004D01*
X136813373Y-43644699D01*
X137503599Y-43645301D01*
X138141515Y-43381719D01*
X138630004Y-42894082D01*
X138894699Y-42256627D01*
X138895301Y-41566401D01*
X138631719Y-40928485D01*
X138144082Y-40439996D01*
X137506627Y-40175301D01*
X136816401Y-40174699D01*
X136178485Y-40438281D01*
X135689996Y-40925918D01*
X135596949Y-41150000D01*
X124632201Y-41150000D01*
X124346120Y-40721848D01*
X123815687Y-40367425D01*
X123190000Y-40242968D01*
X122564313Y-40367425D01*
X122033880Y-40721848D01*
X121679457Y-41252281D01*
X121555000Y-41877968D01*
X116035029Y-41877968D01*
X116035301Y-41566401D01*
X115771719Y-40928485D01*
X115284082Y-40439996D01*
X114646627Y-40175301D01*
X113956401Y-40174699D01*
X113318485Y-40438281D01*
X112829996Y-40925918D01*
X112736949Y-41150000D01*
X101772201Y-41150000D01*
X101486120Y-40721848D01*
X100955687Y-40367425D01*
X100330000Y-40242968D01*
X99704313Y-40367425D01*
X99173880Y-40721848D01*
X98819457Y-41252281D01*
X98695000Y-41877968D01*
X98695000Y-41942032D01*
X98819457Y-42567719D01*
X99173880Y-43098152D01*
X99704313Y-43452575D01*
X100330000Y-43577032D01*
X100955687Y-43452575D01*
X101486120Y-43098152D01*
X101772201Y-42670000D01*
X104900498Y-42670000D01*
X101887216Y-45683282D01*
X101794090Y-45538559D01*
X101581890Y-45393569D01*
X101330000Y-45342560D01*
X99330000Y-45342560D01*
X99094683Y-45386838D01*
X98878559Y-45525910D01*
X98733569Y-45738110D01*
X98682560Y-45990000D01*
X98682560Y-46308766D01*
X98467299Y-46452599D01*
X96323898Y-48596000D01*
X91020904Y-48596000D01*
X91132542Y-48484557D01*
X91534542Y-47516433D01*
X91535457Y-46468166D01*
X91135147Y-45499342D01*
X90394557Y-44757458D01*
X89426433Y-44355458D01*
X88378166Y-44354543D01*
X87409342Y-44754853D01*
X86667458Y-45495443D01*
X86265458Y-46463567D01*
X86264543Y-47511834D01*
X86664853Y-48480658D01*
X86779994Y-48596000D01*
X81476102Y-48596000D01*
X79332701Y-46452599D01*
X79117440Y-46308767D01*
X79117440Y-45990000D01*
X79073162Y-45754683D01*
X78934090Y-45538559D01*
X78721890Y-45393569D01*
X78470000Y-45342560D01*
X76470000Y-45342560D01*
X76234683Y-45386838D01*
X76018559Y-45525910D01*
X75873569Y-45738110D01*
X75822560Y-45990000D01*
X75822560Y-46308766D01*
X75607299Y-46452599D01*
X73463898Y-48596000D01*
X68160904Y-48596000D01*
X68272542Y-48484557D01*
X68674542Y-47516433D01*
X68675457Y-46468166D01*
X68275147Y-45499342D01*
X67986310Y-45210000D01*
X83526753Y-45210000D01*
X83618281Y-45431515D01*
X84105918Y-45920004D01*
X84743373Y-46184699D01*
X85433599Y-46185301D01*
X86071515Y-45921719D01*
X86560004Y-45434082D01*
X86824699Y-44796627D01*
X86825301Y-44106401D01*
X86561719Y-43468485D01*
X86074082Y-42979996D01*
X85436627Y-42715301D01*
X84746401Y-42714699D01*
X84108485Y-42978281D01*
X83619996Y-43465918D01*
X83526949Y-43690000D01*
X64559500Y-43690000D01*
X64268661Y-43747852D01*
X64022099Y-43912599D01*
X63925243Y-44009455D01*
X63701719Y-43468485D01*
X63214082Y-42979996D01*
X62576627Y-42715301D01*
X61886401Y-42714699D01*
X61248485Y-42978281D01*
X60759996Y-43465918D01*
X60495301Y-44103373D01*
X60494699Y-44793599D01*
X60627623Y-45115300D01*
X56454993Y-45115300D01*
X56226239Y-44962452D01*
X55935400Y-44904600D01*
X52729800Y-44904600D01*
X52487214Y-44952854D01*
X52451287Y-44960000D01*
X51023398Y-44960000D01*
X51104526Y-44764621D01*
X51105073Y-44138127D01*
X50865829Y-43559113D01*
X50424885Y-43117399D01*
X50459363Y-43018968D01*
X49530000Y-42089605D01*
X48600637Y-43018968D01*
X48635313Y-43117964D01*
X48195728Y-43556783D01*
X47955474Y-44135379D01*
X47954927Y-44761873D01*
X48036792Y-44960000D01*
X40640000Y-44960000D01*
X40349161Y-45017852D01*
X40102599Y-45182599D01*
X35864896Y-49420302D01*
X35865073Y-49218127D01*
X35625829Y-48639113D01*
X35184885Y-48197399D01*
X35219363Y-48098968D01*
X34290000Y-47169605D01*
X33360637Y-48098968D01*
X33395313Y-48197964D01*
X32955728Y-48636783D01*
X32715474Y-49215379D01*
X32714927Y-49841873D01*
X29920000Y-49841873D01*
X29920000Y-46739833D01*
X32703955Y-46739833D01*
X32728951Y-47365828D01*
X32920420Y-47828077D01*
X33181032Y-47919363D01*
X34110395Y-46990000D01*
X34469605Y-46990000D01*
X35398968Y-47919363D01*
X35659580Y-47828077D01*
X35876045Y-47240167D01*
X35851049Y-46614172D01*
X35659580Y-46151923D01*
X35398968Y-46060637D01*
X34469605Y-46990000D01*
X34110395Y-46990000D01*
X33181032Y-46060637D01*
X32920420Y-46151923D01*
X32703955Y-46739833D01*
X29920000Y-46739833D01*
X29920000Y-45558968D01*
X33360637Y-45558968D01*
X33417043Y-45720000D01*
X33360637Y-45881032D01*
X34290000Y-46810395D01*
X35219363Y-45881032D01*
X35162957Y-45720000D01*
X35219363Y-45558968D01*
X34290000Y-44629605D01*
X33360637Y-45558968D01*
X29920000Y-45558968D01*
X29920000Y-44199833D01*
X32703955Y-44199833D01*
X32728951Y-44825828D01*
X32920420Y-45288077D01*
X33181032Y-45379363D01*
X34110395Y-44450000D01*
X34469605Y-44450000D01*
X35398968Y-45379363D01*
X35659580Y-45288077D01*
X35876045Y-44700167D01*
X35851049Y-44074172D01*
X35659580Y-43611923D01*
X35398968Y-43520637D01*
X34469605Y-44450000D01*
X34110395Y-44450000D01*
X33181032Y-43520637D01*
X32920420Y-43611923D01*
X32703955Y-44199833D01*
X29920000Y-44199833D01*
X29920000Y-39681873D01*
X32714927Y-39681873D01*
X32954171Y-40260887D01*
X33332896Y-40640273D01*
X32955728Y-41016783D01*
X32715474Y-41595379D01*
X32714927Y-42221873D01*
X32954171Y-42800887D01*
X33395115Y-43242601D01*
X33360637Y-43341032D01*
X34290000Y-44270395D01*
X35219363Y-43341032D01*
X35184687Y-43242036D01*
X35624272Y-42803217D01*
X35864526Y-42224621D01*
X35865019Y-41659833D01*
X47943955Y-41659833D01*
X47968951Y-42285828D01*
X48160420Y-42748077D01*
X48421032Y-42839363D01*
X49350395Y-41910000D01*
X49709605Y-41910000D01*
X50638968Y-42839363D01*
X50899580Y-42748077D01*
X51116045Y-42160167D01*
X51104777Y-41877968D01*
X52975000Y-41877968D01*
X52975000Y-41942032D01*
X53099457Y-42567719D01*
X53453880Y-43098152D01*
X53984313Y-43452575D01*
X54610000Y-43577032D01*
X55235687Y-43452575D01*
X55766120Y-43098152D01*
X56052201Y-42670000D01*
X67016753Y-42670000D01*
X67108281Y-42891515D01*
X67595918Y-43380004D01*
X68233373Y-43644699D01*
X68923599Y-43645301D01*
X69561515Y-43381719D01*
X70050004Y-42894082D01*
X70314699Y-42256627D01*
X70315029Y-41877968D01*
X75835000Y-41877968D01*
X75835000Y-41942032D01*
X75959457Y-42567719D01*
X76313880Y-43098152D01*
X76844313Y-43452575D01*
X77470000Y-43577032D01*
X78095687Y-43452575D01*
X78626120Y-43098152D01*
X78912201Y-42670000D01*
X89876753Y-42670000D01*
X89968281Y-42891515D01*
X90455918Y-43380004D01*
X91093373Y-43644699D01*
X91783599Y-43645301D01*
X92421515Y-43381719D01*
X92910004Y-42894082D01*
X93174699Y-42256627D01*
X93175301Y-41566401D01*
X92911719Y-40928485D01*
X92424082Y-40439996D01*
X91786627Y-40175301D01*
X91096401Y-40174699D01*
X90458485Y-40438281D01*
X89969996Y-40925918D01*
X89876949Y-41150000D01*
X78912201Y-41150000D01*
X78626120Y-40721848D01*
X78095687Y-40367425D01*
X77470000Y-40242968D01*
X76844313Y-40367425D01*
X76313880Y-40721848D01*
X75959457Y-41252281D01*
X75835000Y-41877968D01*
X70315029Y-41877968D01*
X70315301Y-41566401D01*
X70051719Y-40928485D01*
X69564082Y-40439996D01*
X68926627Y-40175301D01*
X68236401Y-40174699D01*
X67598485Y-40438281D01*
X67109996Y-40925918D01*
X67016949Y-41150000D01*
X56052201Y-41150000D01*
X55766120Y-40721848D01*
X55235687Y-40367425D01*
X54610000Y-40242968D01*
X53984313Y-40367425D01*
X53453880Y-40721848D01*
X53099457Y-41252281D01*
X52975000Y-41877968D01*
X51104777Y-41877968D01*
X51091049Y-41534172D01*
X50899580Y-41071923D01*
X50638968Y-40980637D01*
X49709605Y-41910000D01*
X49350395Y-41910000D01*
X48421032Y-40980637D01*
X48160420Y-41071923D01*
X47943955Y-41659833D01*
X35865019Y-41659833D01*
X35865073Y-41598127D01*
X35625829Y-41019113D01*
X35247104Y-40639727D01*
X35624272Y-40263217D01*
X35864526Y-39684621D01*
X35864528Y-39681873D01*
X47954927Y-39681873D01*
X48194171Y-40260887D01*
X48635115Y-40702601D01*
X48600637Y-40801032D01*
X49530000Y-41730395D01*
X50459363Y-40801032D01*
X50424687Y-40702036D01*
X50864272Y-40263217D01*
X51104526Y-39684621D01*
X51105073Y-39058127D01*
X50865829Y-38479113D01*
X50423217Y-38035728D01*
X49844621Y-37795474D01*
X49218127Y-37794927D01*
X48639113Y-38034171D01*
X48195728Y-38476783D01*
X47955474Y-39055379D01*
X47954927Y-39681873D01*
X35864528Y-39681873D01*
X35865073Y-39058127D01*
X35625829Y-38479113D01*
X35183217Y-38035728D01*
X34604621Y-37795474D01*
X33978127Y-37794927D01*
X33399113Y-38034171D01*
X32955728Y-38476783D01*
X32715474Y-39055379D01*
X32714927Y-39681873D01*
X29920000Y-39681873D01*
X29920000Y-36270000D01*
X145340000Y-36270000D01*
X145340000Y-103430000D01*
X145340000Y-103430000D01*
G37*
X145340000Y-103430000D02*
X29920000Y-103430000D01*
X29920000Y-93231834D01*
X38004543Y-93231834D01*
X38404853Y-94200658D01*
X39145443Y-94942542D01*
X40113567Y-95344542D01*
X41161834Y-95345457D01*
X42130658Y-94945147D01*
X42872542Y-94204557D01*
X43274542Y-93236433D01*
X43275457Y-92188166D01*
X43077883Y-91710000D01*
X52962560Y-91710000D01*
X52962560Y-93710000D01*
X53006838Y-93945317D01*
X53145910Y-94161441D01*
X53358110Y-94306431D01*
X53610000Y-94357440D01*
X55610000Y-94357440D01*
X55845317Y-94313162D01*
X56061441Y-94174090D01*
X56206431Y-93961890D01*
X56257440Y-93710000D01*
X56257440Y-93231834D01*
X63404543Y-93231834D01*
X63804853Y-94200658D01*
X64545443Y-94942542D01*
X65513567Y-95344542D01*
X66561834Y-95345457D01*
X67530658Y-94945147D01*
X68272542Y-94204557D01*
X68674542Y-93236433D01*
X68675457Y-92188166D01*
X68477883Y-91710000D01*
X75822560Y-91710000D01*
X75822560Y-93710000D01*
X75866838Y-93945317D01*
X76005910Y-94161441D01*
X76218110Y-94306431D01*
X76470000Y-94357440D01*
X78470000Y-94357440D01*
X78705317Y-94313162D01*
X78921441Y-94174090D01*
X79028257Y-94017759D01*
X80600399Y-95589901D01*
X80846960Y-95754648D01*
X81137800Y-95812500D01*
X96662200Y-95812500D01*
X96953039Y-95754648D01*
X97199601Y-95589901D01*
X98772784Y-94016718D01*
X98865910Y-94161441D01*
X99078110Y-94306431D01*
X99330000Y-94357440D01*
X101330000Y-94357440D01*
X101565317Y-94313162D01*
X101781441Y-94174090D01*
X101888257Y-94017759D01*
X103448999Y-95578501D01*
X103695560Y-95743248D01*
X103986400Y-95801100D01*
X119533600Y-95801100D01*
X119824439Y-95743248D01*
X120071001Y-95578501D01*
X121632784Y-94016718D01*
X121725910Y-94161441D01*
X121938110Y-94306431D01*
X122190000Y-94357440D01*
X124190000Y-94357440D01*
X124425317Y-94313162D01*
X124641441Y-94174090D01*
X124786431Y-93961890D01*
X124837440Y-93710000D01*
X124837440Y-93231834D01*
X131984543Y-93231834D01*
X132384853Y-94200658D01*
X133125443Y-94942542D01*
X134093567Y-95344542D01*
X135141834Y-95345457D01*
X136110658Y-94945147D01*
X136852542Y-94204557D01*
X137254542Y-93236433D01*
X137255457Y-92188166D01*
X136855147Y-91219342D01*
X136114557Y-90477458D01*
X135146433Y-90075458D01*
X134098166Y-90074543D01*
X133129342Y-90474853D01*
X132387458Y-91215443D01*
X131985458Y-92183567D01*
X131984543Y-93231834D01*
X124837440Y-93231834D01*
X124837440Y-91710000D01*
X124793162Y-91474683D01*
X124654090Y-91258559D01*
X124441890Y-91113569D01*
X124190000Y-91062560D01*
X122190000Y-91062560D01*
X121954683Y-91106838D01*
X121738559Y-91245910D01*
X121593569Y-91458110D01*
X121542560Y-91710000D01*
X121542560Y-92028766D01*
X121327299Y-92172599D01*
X119218798Y-94281100D01*
X113915865Y-94281100D01*
X113992542Y-94204557D01*
X114394542Y-93236433D01*
X114395457Y-92188166D01*
X113995147Y-91219342D01*
X113290635Y-90513599D01*
X129074699Y-90513599D01*
X129338281Y-91151515D01*
X129825918Y-91640004D01*
X130463373Y-91904699D01*
X131153599Y-91905301D01*
X131791515Y-91641719D01*
X132280004Y-91154082D01*
X132544699Y-90516627D01*
X132545301Y-89826401D01*
X132281719Y-89188485D01*
X131794082Y-88699996D01*
X131156627Y-88435301D01*
X130466401Y-88434699D01*
X129828485Y-88698281D01*
X129339996Y-89185918D01*
X129075301Y-89823373D01*
X129074699Y-90513599D01*
X113290635Y-90513599D01*
X113254557Y-90477458D01*
X112286433Y-90075458D01*
X111238166Y-90074543D01*
X110269342Y-90474853D01*
X109527458Y-91215443D01*
X109125458Y-92183567D01*
X109124543Y-93231834D01*
X109524853Y-94200658D01*
X109605155Y-94281100D01*
X104301202Y-94281100D01*
X102192701Y-92172599D01*
X101977440Y-92028767D01*
X101977440Y-91710000D01*
X101933162Y-91474683D01*
X101794090Y-91258559D01*
X101581890Y-91113569D01*
X101330000Y-91062560D01*
X99330000Y-91062560D01*
X99094683Y-91106838D01*
X98878559Y-91245910D01*
X98733569Y-91458110D01*
X98682560Y-91710000D01*
X98682560Y-92028766D01*
X98467299Y-92172599D01*
X96347398Y-94292500D01*
X91044445Y-94292500D01*
X91132542Y-94204557D01*
X91534542Y-93236433D01*
X91535457Y-92188166D01*
X91135147Y-91219342D01*
X90430635Y-90513599D01*
X106214699Y-90513599D01*
X106478281Y-91151515D01*
X106965918Y-91640004D01*
X107603373Y-91904699D01*
X108293599Y-91905301D01*
X108931515Y-91641719D01*
X109420004Y-91154082D01*
X109684699Y-90516627D01*
X109685301Y-89826401D01*
X109421719Y-89188485D01*
X108934082Y-88699996D01*
X108296627Y-88435301D01*
X107606401Y-88434699D01*
X106968485Y-88698281D01*
X106479996Y-89185918D01*
X106215301Y-89823373D01*
X106214699Y-90513599D01*
X90430635Y-90513599D01*
X90394557Y-90477458D01*
X89426433Y-90075458D01*
X88378166Y-90074543D01*
X87409342Y-90474853D01*
X86667458Y-91215443D01*
X86265458Y-92183567D01*
X86264543Y-93231834D01*
X86664853Y-94200658D01*
X86756535Y-94292500D01*
X81452602Y-94292500D01*
X79332701Y-92172599D01*
X79117440Y-92028767D01*
X79117440Y-91710000D01*
X79073162Y-91474683D01*
X78934090Y-91258559D01*
X78721890Y-91113569D01*
X78470000Y-91062560D01*
X76470000Y-91062560D01*
X76234683Y-91106838D01*
X76018559Y-91245910D01*
X75873569Y-91458110D01*
X75822560Y-91710000D01*
X68477883Y-91710000D01*
X68275147Y-91219342D01*
X67570635Y-90513599D01*
X83354699Y-90513599D01*
X83618281Y-91151515D01*
X84105918Y-91640004D01*
X84743373Y-91904699D01*
X85433599Y-91905301D01*
X86071515Y-91641719D01*
X86560004Y-91154082D01*
X86824699Y-90516627D01*
X86825301Y-89826401D01*
X86561719Y-89188485D01*
X86074082Y-88699996D01*
X85436627Y-88435301D01*
X84746401Y-88434699D01*
X84108485Y-88698281D01*
X83619996Y-89185918D01*
X83355301Y-89823373D01*
X83354699Y-90513599D01*
X67570635Y-90513599D01*
X67534557Y-90477458D01*
X66566433Y-90075458D01*
X65518166Y-90074543D01*
X64549342Y-90474853D01*
X63807458Y-91215443D01*
X63405458Y-92183567D01*
X63404543Y-93231834D01*
X56257440Y-93231834D01*
X56257440Y-91710000D01*
X56213162Y-91474683D01*
X56074090Y-91258559D01*
X55861890Y-91113569D01*
X55610000Y-91062560D01*
X53610000Y-91062560D01*
X53374683Y-91106838D01*
X53158559Y-91245910D01*
X53013569Y-91458110D01*
X52962560Y-91710000D01*
X43077883Y-91710000D01*
X42875147Y-91219342D01*
X42170635Y-90513599D01*
X60494699Y-90513599D01*
X60758281Y-91151515D01*
X61245918Y-91640004D01*
X61883373Y-91904699D01*
X62573599Y-91905301D01*
X63211515Y-91641719D01*
X63700004Y-91154082D01*
X63964699Y-90516627D01*
X63965301Y-89826401D01*
X63701719Y-89188485D01*
X63214082Y-88699996D01*
X62576627Y-88435301D01*
X61886401Y-88434699D01*
X61248485Y-88698281D01*
X60759996Y-89185918D01*
X60495301Y-89823373D01*
X60494699Y-90513599D01*
X42170635Y-90513599D01*
X42134557Y-90477458D01*
X41166433Y-90075458D01*
X40118166Y-90074543D01*
X39149342Y-90474853D01*
X38407458Y-91215443D01*
X38005458Y-92183567D01*
X38004543Y-93231834D01*
X29920000Y-93231834D01*
X29920000Y-90513599D01*
X35094699Y-90513599D01*
X35358281Y-91151515D01*
X35845918Y-91640004D01*
X36483373Y-91904699D01*
X37173599Y-91905301D01*
X37811515Y-91641719D01*
X38300004Y-91154082D01*
X38564699Y-90516627D01*
X38565301Y-89826401D01*
X38301719Y-89188485D01*
X37814082Y-88699996D01*
X37176627Y-88435301D01*
X36486401Y-88434699D01*
X35848485Y-88698281D01*
X35359996Y-89185918D01*
X35095301Y-89823373D01*
X35094699Y-90513599D01*
X29920000Y-90513599D01*
X29920000Y-87973599D01*
X41444699Y-87973599D01*
X41708281Y-88611515D01*
X42195918Y-89100004D01*
X42833373Y-89364699D01*
X43523599Y-89365301D01*
X44161515Y-89101719D01*
X44650004Y-88614082D01*
X44914699Y-87976627D01*
X44915029Y-87597968D01*
X52975000Y-87597968D01*
X52975000Y-87662032D01*
X53099457Y-88287719D01*
X53453880Y-88818152D01*
X53984313Y-89172575D01*
X54610000Y-89297032D01*
X55235687Y-89172575D01*
X55766120Y-88818152D01*
X56052201Y-88390000D01*
X67016753Y-88390000D01*
X67108281Y-88611515D01*
X67595918Y-89100004D01*
X68233373Y-89364699D01*
X68923599Y-89365301D01*
X69561515Y-89101719D01*
X70050004Y-88614082D01*
X70314699Y-87976627D01*
X70315029Y-87597968D01*
X75835000Y-87597968D01*
X75835000Y-87662032D01*
X75959457Y-88287719D01*
X76313880Y-88818152D01*
X76844313Y-89172575D01*
X77470000Y-89297032D01*
X78095687Y-89172575D01*
X78626120Y-88818152D01*
X78912201Y-88390000D01*
X89876753Y-88390000D01*
X89968281Y-88611515D01*
X90455918Y-89100004D01*
X91093373Y-89364699D01*
X91783599Y-89365301D01*
X92421515Y-89101719D01*
X92910004Y-88614082D01*
X93174699Y-87976627D01*
X93175029Y-87597968D01*
X98695000Y-87597968D01*
X98695000Y-87662032D01*
X98819457Y-88287719D01*
X99173880Y-88818152D01*
X99704313Y-89172575D01*
X100330000Y-89297032D01*
X100955687Y-89172575D01*
X101486120Y-88818152D01*
X101772201Y-88390000D01*
X112736753Y-88390000D01*
X112828281Y-88611515D01*
X113315918Y-89100004D01*
X113953373Y-89364699D01*
X114643599Y-89365301D01*
X115281515Y-89101719D01*
X115770004Y-88614082D01*
X116034699Y-87976627D01*
X116035029Y-87597968D01*
X121555000Y-87597968D01*
X121555000Y-87662032D01*
X121679457Y-88287719D01*
X122033880Y-88818152D01*
X122564313Y-89172575D01*
X123190000Y-89297032D01*
X123815687Y-89172575D01*
X124346120Y-88818152D01*
X124632201Y-88390000D01*
X135596753Y-88390000D01*
X135688281Y-88611515D01*
X136175918Y-89100004D01*
X136813373Y-89364699D01*
X137503599Y-89365301D01*
X138141515Y-89101719D01*
X138630004Y-88614082D01*
X138894699Y-87976627D01*
X138895301Y-87286401D01*
X138631719Y-86648485D01*
X138144082Y-86159996D01*
X137506627Y-85895301D01*
X136816401Y-85894699D01*
X136178485Y-86158281D01*
X135689996Y-86645918D01*
X135596949Y-86870000D01*
X124632201Y-86870000D01*
X124346120Y-86441848D01*
X123815687Y-86087425D01*
X123190000Y-85962968D01*
X122564313Y-86087425D01*
X122033880Y-86441848D01*
X121679457Y-86972281D01*
X121555000Y-87597968D01*
X116035029Y-87597968D01*
X116035301Y-87286401D01*
X115771719Y-86648485D01*
X115284082Y-86159996D01*
X114646627Y-85895301D01*
X113956401Y-85894699D01*
X113318485Y-86158281D01*
X112829996Y-86645918D01*
X112736949Y-86870000D01*
X101772201Y-86870000D01*
X101486120Y-86441848D01*
X100955687Y-86087425D01*
X100330000Y-85962968D01*
X99704313Y-86087425D01*
X99173880Y-86441848D01*
X98819457Y-86972281D01*
X98695000Y-87597968D01*
X93175029Y-87597968D01*
X93175301Y-87286401D01*
X92911719Y-86648485D01*
X92424082Y-86159996D01*
X91786627Y-85895301D01*
X91096401Y-85894699D01*
X90458485Y-86158281D01*
X89969996Y-86645918D01*
X89876949Y-86870000D01*
X78912201Y-86870000D01*
X78626120Y-86441848D01*
X78095687Y-86087425D01*
X77470000Y-85962968D01*
X76844313Y-86087425D01*
X76313880Y-86441848D01*
X75959457Y-86972281D01*
X75835000Y-87597968D01*
X70315029Y-87597968D01*
X70315301Y-87286401D01*
X70051719Y-86648485D01*
X69564082Y-86159996D01*
X68926627Y-85895301D01*
X68236401Y-85894699D01*
X67598485Y-86158281D01*
X67109996Y-86645918D01*
X67016949Y-86870000D01*
X56052201Y-86870000D01*
X55766120Y-86441848D01*
X55235687Y-86087425D01*
X54610000Y-85962968D01*
X53984313Y-86087425D01*
X53453880Y-86441848D01*
X53099457Y-86972281D01*
X52975000Y-87597968D01*
X44915029Y-87597968D01*
X44915301Y-87286401D01*
X44651719Y-86648485D01*
X44164082Y-86159996D01*
X43526627Y-85895301D01*
X42836401Y-85894699D01*
X42198485Y-86158281D01*
X41709996Y-86645918D01*
X41445301Y-87283373D01*
X41444699Y-87973599D01*
X29920000Y-87973599D01*
X29920000Y-75200000D01*
X36452560Y-75200000D01*
X36452560Y-77200000D01*
X36496838Y-77435317D01*
X36635910Y-77651441D01*
X36848110Y-77796431D01*
X37100000Y-77847440D01*
X39100000Y-77847440D01*
X39335317Y-77803162D01*
X39551441Y-77664090D01*
X39696431Y-77451890D01*
X39747440Y-77200000D01*
X39747440Y-76200000D01*
X41512968Y-76200000D01*
X41637425Y-76825687D01*
X41991848Y-77356120D01*
X42522281Y-77710543D01*
X43147968Y-77835000D01*
X43212032Y-77835000D01*
X43837719Y-77710543D01*
X44368152Y-77356120D01*
X44722575Y-76825687D01*
X44847032Y-76200000D01*
X44722575Y-75574313D01*
X44368152Y-75043880D01*
X43837719Y-74689457D01*
X43212032Y-74565000D01*
X43147968Y-74565000D01*
X42522281Y-74689457D01*
X41991848Y-75043880D01*
X41637425Y-75574313D01*
X41512968Y-76200000D01*
X39747440Y-76200000D01*
X39747440Y-75200000D01*
X39703162Y-74964683D01*
X39564090Y-74748559D01*
X39351890Y-74603569D01*
X39100000Y-74552560D01*
X37100000Y-74552560D01*
X36864683Y-74596838D01*
X36648559Y-74735910D01*
X36503569Y-74948110D01*
X36452560Y-75200000D01*
X29920000Y-75200000D01*
X29920000Y-49841873D01*
X32714927Y-49841873D01*
X32954171Y-50420887D01*
X33332896Y-50800273D01*
X32955728Y-51176783D01*
X32715474Y-51755379D01*
X32714927Y-52381873D01*
X32954171Y-52960887D01*
X33332896Y-53340273D01*
X32955728Y-53716783D01*
X32715474Y-54295379D01*
X32714927Y-54921873D01*
X32954171Y-55500887D01*
X33332896Y-55880273D01*
X32955728Y-56256783D01*
X32715474Y-56835379D01*
X32714927Y-57461873D01*
X32954171Y-58040887D01*
X33332896Y-58420273D01*
X32955728Y-58796783D01*
X32715474Y-59375379D01*
X32714927Y-60001873D01*
X32954171Y-60580887D01*
X33332896Y-60960273D01*
X32955728Y-61336783D01*
X32715474Y-61915379D01*
X32714927Y-62541873D01*
X32954171Y-63120887D01*
X33332896Y-63500273D01*
X32955728Y-63876783D01*
X32715474Y-64455379D01*
X32714927Y-65081873D01*
X32954171Y-65660887D01*
X33332896Y-66040273D01*
X32955728Y-66416783D01*
X32715474Y-66995379D01*
X32714927Y-67621873D01*
X32954171Y-68200887D01*
X33396783Y-68644272D01*
X33975379Y-68884526D01*
X34601873Y-68885073D01*
X35180887Y-68645829D01*
X35624272Y-68203217D01*
X35864526Y-67624621D01*
X35865073Y-66998127D01*
X35625829Y-66419113D01*
X35247104Y-66039727D01*
X35624272Y-65663217D01*
X35864526Y-65084621D01*
X35865073Y-64458127D01*
X35625829Y-63879113D01*
X35247104Y-63499727D01*
X35624272Y-63123217D01*
X35864526Y-62544621D01*
X35865073Y-61918127D01*
X35625829Y-61339113D01*
X35247104Y-60959727D01*
X35624272Y-60583217D01*
X35864526Y-60004621D01*
X35865073Y-59378127D01*
X35783126Y-59179800D01*
X48036685Y-59179800D01*
X47955474Y-59375379D01*
X47954927Y-60001873D01*
X48194171Y-60580887D01*
X48572896Y-60960273D01*
X48195728Y-61336783D01*
X47955474Y-61915379D01*
X47954927Y-62541873D01*
X48194171Y-63120887D01*
X48572896Y-63500273D01*
X48195728Y-63876783D01*
X47955474Y-64455379D01*
X47954927Y-65081873D01*
X48194171Y-65660887D01*
X48572896Y-66040273D01*
X48195728Y-66416783D01*
X47955474Y-66995379D01*
X47954927Y-67621873D01*
X48194171Y-68200887D01*
X48636783Y-68644272D01*
X49215379Y-68884526D01*
X49841873Y-68885073D01*
X49926756Y-68850000D01*
X52962560Y-68850000D01*
X52962560Y-70850000D01*
X53006838Y-71085317D01*
X53145910Y-71301441D01*
X53358110Y-71446431D01*
X53610000Y-71497440D01*
X55610000Y-71497440D01*
X55845317Y-71453162D01*
X56061441Y-71314090D01*
X56168257Y-71157759D01*
X57751899Y-72741401D01*
X57998461Y-72906148D01*
X58289300Y-72964000D01*
X73790700Y-72964000D01*
X74081539Y-72906148D01*
X74328101Y-72741401D01*
X75912784Y-71156718D01*
X76005910Y-71301441D01*
X76218110Y-71446431D01*
X76470000Y-71497440D01*
X78470000Y-71497440D01*
X78705317Y-71453162D01*
X78921441Y-71314090D01*
X79028257Y-71157759D01*
X80611899Y-72741401D01*
X80858461Y-72906148D01*
X81149300Y-72964000D01*
X96650700Y-72964000D01*
X96941539Y-72906148D01*
X97188101Y-72741401D01*
X98772784Y-71156718D01*
X98865910Y-71301441D01*
X99078110Y-71446431D01*
X99330000Y-71497440D01*
X101330000Y-71497440D01*
X101565317Y-71453162D01*
X101781441Y-71314090D01*
X101888257Y-71157759D01*
X103471899Y-72741401D01*
X103718461Y-72906148D01*
X104009300Y-72964000D01*
X119510700Y-72964000D01*
X119801539Y-72906148D01*
X120048101Y-72741401D01*
X121632784Y-71156718D01*
X121725910Y-71301441D01*
X121938110Y-71446431D01*
X122190000Y-71497440D01*
X124190000Y-71497440D01*
X124425317Y-71453162D01*
X124641441Y-71314090D01*
X124786431Y-71101890D01*
X124837440Y-70850000D01*
X124837440Y-70371834D01*
X131984543Y-70371834D01*
X132384853Y-71340658D01*
X133125443Y-72082542D01*
X134093567Y-72484542D01*
X135141834Y-72485457D01*
X136110658Y-72085147D01*
X136852542Y-71344557D01*
X137254542Y-70376433D01*
X137255457Y-69328166D01*
X136855147Y-68359342D01*
X136114557Y-67617458D01*
X135146433Y-67215458D01*
X134098166Y-67214543D01*
X133129342Y-67614853D01*
X132387458Y-68355443D01*
X131985458Y-69323567D01*
X131984543Y-70371834D01*
X124837440Y-70371834D01*
X124837440Y-68850000D01*
X124793162Y-68614683D01*
X124654090Y-68398559D01*
X124441890Y-68253569D01*
X124190000Y-68202560D01*
X122190000Y-68202560D01*
X121954683Y-68246838D01*
X121738559Y-68385910D01*
X121593569Y-68598110D01*
X121542560Y-68850000D01*
X121542560Y-69168767D01*
X121327299Y-69312599D01*
X119195898Y-71444000D01*
X113892925Y-71444000D01*
X113992542Y-71344557D01*
X114394542Y-70376433D01*
X114395457Y-69328166D01*
X113995147Y-68359342D01*
X113254557Y-67617458D01*
X112286433Y-67215458D01*
X111238166Y-67214543D01*
X110269342Y-67614853D01*
X109527458Y-68355443D01*
X109125458Y-69323567D01*
X109124543Y-70371834D01*
X109524853Y-71340658D01*
X109628015Y-71444000D01*
X104324102Y-71444000D01*
X102192701Y-69312599D01*
X101977440Y-69168767D01*
X101977440Y-68850000D01*
X101933162Y-68614683D01*
X101794090Y-68398559D01*
X101581890Y-68253569D01*
X101330000Y-68202560D01*
X99330000Y-68202560D01*
X99094683Y-68246838D01*
X98878559Y-68385910D01*
X98733569Y-68598110D01*
X98682560Y-68850000D01*
X98682560Y-69168767D01*
X98467299Y-69312599D01*
X96335898Y-71444000D01*
X91032925Y-71444000D01*
X91132542Y-71344557D01*
X91534542Y-70376433D01*
X91535457Y-69328166D01*
X91135147Y-68359342D01*
X90430635Y-67653599D01*
X106214699Y-67653599D01*
X106478281Y-68291515D01*
X106965918Y-68780004D01*
X107603373Y-69044699D01*
X108293599Y-69045301D01*
X108931515Y-68781719D01*
X109420004Y-68294082D01*
X109684699Y-67656627D01*
X109685301Y-66966401D01*
X109421719Y-66328485D01*
X108934082Y-65839996D01*
X108296627Y-65575301D01*
X107606401Y-65574699D01*
X106968485Y-65838281D01*
X106479996Y-66325918D01*
X106215301Y-66963373D01*
X106214699Y-67653599D01*
X90430635Y-67653599D01*
X90394557Y-67617458D01*
X89426433Y-67215458D01*
X88378166Y-67214543D01*
X87409342Y-67614853D01*
X86667458Y-68355443D01*
X86265458Y-69323567D01*
X86264543Y-70371834D01*
X86664853Y-71340658D01*
X86768015Y-71444000D01*
X81464102Y-71444000D01*
X79332701Y-69312599D01*
X79117440Y-69168767D01*
X79117440Y-68850000D01*
X79073162Y-68614683D01*
X78934090Y-68398559D01*
X78721890Y-68253569D01*
X78470000Y-68202560D01*
X76470000Y-68202560D01*
X76234683Y-68246838D01*
X76018559Y-68385910D01*
X75873569Y-68598110D01*
X75822560Y-68850000D01*
X75822560Y-69168767D01*
X75607299Y-69312599D01*
X73475898Y-71444000D01*
X68172925Y-71444000D01*
X68272542Y-71344557D01*
X68674542Y-70376433D01*
X68675457Y-69328166D01*
X68275147Y-68359342D01*
X67570635Y-67653599D01*
X83354699Y-67653599D01*
X83618281Y-68291515D01*
X84105918Y-68780004D01*
X84743373Y-69044699D01*
X85433599Y-69045301D01*
X86071515Y-68781719D01*
X86560004Y-68294082D01*
X86824699Y-67656627D01*
X86825301Y-66966401D01*
X86561719Y-66328485D01*
X86074082Y-65839996D01*
X85436627Y-65575301D01*
X84746401Y-65574699D01*
X84108485Y-65838281D01*
X83619996Y-66325918D01*
X83355301Y-66963373D01*
X83354699Y-67653599D01*
X67570635Y-67653599D01*
X67534557Y-67617458D01*
X66566433Y-67215458D01*
X65518166Y-67214543D01*
X64549342Y-67614853D01*
X63807458Y-68355443D01*
X63405458Y-69323567D01*
X63404543Y-70371834D01*
X63804853Y-71340658D01*
X63908015Y-71444000D01*
X58604102Y-71444000D01*
X56472701Y-69312599D01*
X56257440Y-69168767D01*
X56257440Y-68850000D01*
X56213162Y-68614683D01*
X56074090Y-68398559D01*
X55861890Y-68253569D01*
X55610000Y-68202560D01*
X53610000Y-68202560D01*
X53374683Y-68246838D01*
X53158559Y-68385910D01*
X53013569Y-68598110D01*
X52962560Y-68850000D01*
X49926756Y-68850000D01*
X50420887Y-68645829D01*
X50864272Y-68203217D01*
X51092493Y-67653599D01*
X60494699Y-67653599D01*
X60758281Y-68291515D01*
X61245918Y-68780004D01*
X61883373Y-69044699D01*
X62573599Y-69045301D01*
X63211515Y-68781719D01*
X63700004Y-68294082D01*
X63964699Y-67656627D01*
X63965301Y-66966401D01*
X63701719Y-66328485D01*
X63214082Y-65839996D01*
X62576627Y-65575301D01*
X61886401Y-65574699D01*
X61248485Y-65838281D01*
X60759996Y-66325918D01*
X60495301Y-66963373D01*
X60494699Y-67653599D01*
X51092493Y-67653599D01*
X51104526Y-67624621D01*
X51105073Y-66998127D01*
X50865829Y-66419113D01*
X50487104Y-66039727D01*
X50864272Y-65663217D01*
X51104526Y-65084621D01*
X51104828Y-64737968D01*
X52975000Y-64737968D01*
X52975000Y-64802032D01*
X53099457Y-65427719D01*
X53453880Y-65958152D01*
X53984313Y-66312575D01*
X54610000Y-66437032D01*
X55235687Y-66312575D01*
X55766120Y-65958152D01*
X56052201Y-65530000D01*
X67016753Y-65530000D01*
X67108281Y-65751515D01*
X67595918Y-66240004D01*
X68233373Y-66504699D01*
X68923599Y-66505301D01*
X69561515Y-66241719D01*
X70050004Y-65754082D01*
X70314699Y-65116627D01*
X70315029Y-64737968D01*
X75835000Y-64737968D01*
X75835000Y-64802032D01*
X75959457Y-65427719D01*
X76313880Y-65958152D01*
X76844313Y-66312575D01*
X77470000Y-66437032D01*
X78095687Y-66312575D01*
X78626120Y-65958152D01*
X78912201Y-65530000D01*
X89876753Y-65530000D01*
X89968281Y-65751515D01*
X90455918Y-66240004D01*
X91093373Y-66504699D01*
X91783599Y-66505301D01*
X92421515Y-66241719D01*
X92910004Y-65754082D01*
X93174699Y-65116627D01*
X93175029Y-64737968D01*
X98695000Y-64737968D01*
X98695000Y-64802032D01*
X98819457Y-65427719D01*
X99173880Y-65958152D01*
X99704313Y-66312575D01*
X100330000Y-66437032D01*
X100955687Y-66312575D01*
X101486120Y-65958152D01*
X101772201Y-65530000D01*
X112736753Y-65530000D01*
X112828281Y-65751515D01*
X113315918Y-66240004D01*
X113953373Y-66504699D01*
X114643599Y-66505301D01*
X115281515Y-66241719D01*
X115770004Y-65754082D01*
X116034699Y-65116627D01*
X116035029Y-64737968D01*
X121555000Y-64737968D01*
X121555000Y-64802032D01*
X121679457Y-65427719D01*
X122033880Y-65958152D01*
X122564313Y-66312575D01*
X123190000Y-66437032D01*
X123815687Y-66312575D01*
X124346120Y-65958152D01*
X124700543Y-65427719D01*
X124825000Y-64802032D01*
X124825000Y-64737968D01*
X124700543Y-64112281D01*
X124346120Y-63581848D01*
X123815687Y-63227425D01*
X123190000Y-63102968D01*
X122564313Y-63227425D01*
X122033880Y-63581848D01*
X121679457Y-64112281D01*
X121555000Y-64737968D01*
X116035029Y-64737968D01*
X116035301Y-64426401D01*
X115771719Y-63788485D01*
X115284082Y-63299996D01*
X114646627Y-63035301D01*
X113956401Y-63034699D01*
X113318485Y-63298281D01*
X112829996Y-63785918D01*
X112736949Y-64010000D01*
X101772201Y-64010000D01*
X101486120Y-63581848D01*
X100955687Y-63227425D01*
X100330000Y-63102968D01*
X99704313Y-63227425D01*
X99173880Y-63581848D01*
X98819457Y-64112281D01*
X98695000Y-64737968D01*
X93175029Y-64737968D01*
X93175301Y-64426401D01*
X92911719Y-63788485D01*
X92424082Y-63299996D01*
X91786627Y-63035301D01*
X91096401Y-63034699D01*
X90458485Y-63298281D01*
X89969996Y-63785918D01*
X89876949Y-64010000D01*
X78912201Y-64010000D01*
X78626120Y-63581848D01*
X78095687Y-63227425D01*
X77470000Y-63102968D01*
X76844313Y-63227425D01*
X76313880Y-63581848D01*
X75959457Y-64112281D01*
X75835000Y-64737968D01*
X70315029Y-64737968D01*
X70315301Y-64426401D01*
X70051719Y-63788485D01*
X69564082Y-63299996D01*
X68926627Y-63035301D01*
X68236401Y-63034699D01*
X67598485Y-63298281D01*
X67109996Y-63785918D01*
X67016949Y-64010000D01*
X56052201Y-64010000D01*
X55766120Y-63581848D01*
X55235687Y-63227425D01*
X54610000Y-63102968D01*
X53984313Y-63227425D01*
X53453880Y-63581848D01*
X53099457Y-64112281D01*
X52975000Y-64737968D01*
X51104828Y-64737968D01*
X51105073Y-64458127D01*
X50865829Y-63879113D01*
X50487104Y-63499727D01*
X50864272Y-63123217D01*
X51104526Y-62544621D01*
X51105073Y-61918127D01*
X50865829Y-61339113D01*
X50487104Y-60959727D01*
X50864272Y-60583217D01*
X51104526Y-60004621D01*
X51105073Y-59378127D01*
X51023126Y-59179800D01*
X121604998Y-59179800D01*
X129167216Y-66742018D01*
X129075301Y-66963373D01*
X129074699Y-67653599D01*
X129338281Y-68291515D01*
X129825918Y-68780004D01*
X130463373Y-69044699D01*
X131153599Y-69045301D01*
X131791515Y-68781719D01*
X132280004Y-68294082D01*
X132544699Y-67656627D01*
X132545301Y-66966401D01*
X132281719Y-66328485D01*
X131794082Y-65839996D01*
X131156627Y-65575301D01*
X130466401Y-65574699D01*
X130242157Y-65667355D01*
X129688401Y-65113599D01*
X135424699Y-65113599D01*
X135688281Y-65751515D01*
X136175918Y-66240004D01*
X136813373Y-66504699D01*
X137503599Y-66505301D01*
X138141515Y-66241719D01*
X138630004Y-65754082D01*
X138894699Y-65116627D01*
X138895301Y-64426401D01*
X138631719Y-63788485D01*
X138144082Y-63299996D01*
X137506627Y-63035301D01*
X136816401Y-63034699D01*
X136178485Y-63298281D01*
X135689996Y-63785918D01*
X135425301Y-64423373D01*
X135424699Y-65113599D01*
X129688401Y-65113599D01*
X122994602Y-58419800D01*
X131347401Y-50067001D01*
X131512148Y-49820440D01*
X131521746Y-49772186D01*
X131570000Y-49529600D01*
X131570000Y-47511834D01*
X131984543Y-47511834D01*
X132384853Y-48480658D01*
X133125443Y-49222542D01*
X134093567Y-49624542D01*
X135141834Y-49625457D01*
X136110658Y-49225147D01*
X136852542Y-48484557D01*
X137254542Y-47516433D01*
X137255457Y-46468166D01*
X136855147Y-45499342D01*
X136114557Y-44757458D01*
X135146433Y-44355458D01*
X134098166Y-44354543D01*
X133129342Y-44754853D01*
X132387458Y-45495443D01*
X131985458Y-46463567D01*
X131984543Y-47511834D01*
X131570000Y-47511834D01*
X131570000Y-46013247D01*
X131791515Y-45921719D01*
X132280004Y-45434082D01*
X132544699Y-44796627D01*
X132545301Y-44106401D01*
X132281719Y-43468485D01*
X131794082Y-42979996D01*
X131156627Y-42715301D01*
X130466401Y-42714699D01*
X129828485Y-42978281D01*
X129339996Y-43465918D01*
X129075301Y-44103373D01*
X129074699Y-44793599D01*
X129338281Y-45431515D01*
X129825918Y-45920004D01*
X130050000Y-46013051D01*
X130050000Y-49214798D01*
X121604998Y-57659800D01*
X51023481Y-57659800D01*
X51104526Y-57464621D01*
X51105073Y-56838127D01*
X51023208Y-56640000D01*
X96520000Y-56640000D01*
X96810839Y-56582148D01*
X97057401Y-56417401D01*
X105962968Y-47511834D01*
X109124543Y-47511834D01*
X109524853Y-48480658D01*
X110265443Y-49222542D01*
X111233567Y-49624542D01*
X112281834Y-49625457D01*
X113250658Y-49225147D01*
X113992542Y-48484557D01*
X114394542Y-47516433D01*
X114395457Y-46468166D01*
X113995147Y-45499342D01*
X113254557Y-44757458D01*
X112286433Y-44355458D01*
X111238166Y-44354543D01*
X110269342Y-44754853D01*
X109527458Y-45495443D01*
X109125458Y-46463567D01*
X109124543Y-47511834D01*
X105962968Y-47511834D01*
X107382018Y-46092784D01*
X107603373Y-46184699D01*
X108293599Y-46185301D01*
X108931515Y-45921719D01*
X109420004Y-45434082D01*
X109684699Y-44796627D01*
X109685301Y-44106401D01*
X109530643Y-43732100D01*
X112507298Y-43732100D01*
X116302599Y-47527401D01*
X116549161Y-47692148D01*
X116840000Y-47750000D01*
X121542560Y-47750000D01*
X121542560Y-47990000D01*
X121586838Y-48225317D01*
X121725910Y-48441441D01*
X121938110Y-48586431D01*
X122190000Y-48637440D01*
X124190000Y-48637440D01*
X124425317Y-48593162D01*
X124641441Y-48454090D01*
X124786431Y-48241890D01*
X124837440Y-47990000D01*
X124837440Y-45990000D01*
X124793162Y-45754683D01*
X124654090Y-45538559D01*
X124441890Y-45393569D01*
X124190000Y-45342560D01*
X122190000Y-45342560D01*
X121954683Y-45386838D01*
X121738559Y-45525910D01*
X121593569Y-45738110D01*
X121542560Y-45990000D01*
X121542560Y-46230000D01*
X117154802Y-46230000D01*
X114570039Y-43645237D01*
X114643599Y-43645301D01*
X115281515Y-43381719D01*
X115770004Y-42894082D01*
X116034699Y-42256627D01*
X116035029Y-41877968D01*
X121555000Y-41877968D01*
X121555000Y-41942032D01*
X121679457Y-42567719D01*
X122033880Y-43098152D01*
X122564313Y-43452575D01*
X123190000Y-43577032D01*
X123815687Y-43452575D01*
X124346120Y-43098152D01*
X124632201Y-42670000D01*
X135596753Y-42670000D01*
X135688281Y-42891515D01*
X136175918Y-43380004D01*
X136813373Y-43644699D01*
X137503599Y-43645301D01*
X138141515Y-43381719D01*
X138630004Y-42894082D01*
X138894699Y-42256627D01*
X138895301Y-41566401D01*
X138631719Y-40928485D01*
X138144082Y-40439996D01*
X137506627Y-40175301D01*
X136816401Y-40174699D01*
X136178485Y-40438281D01*
X135689996Y-40925918D01*
X135596949Y-41150000D01*
X124632201Y-41150000D01*
X124346120Y-40721848D01*
X123815687Y-40367425D01*
X123190000Y-40242968D01*
X122564313Y-40367425D01*
X122033880Y-40721848D01*
X121679457Y-41252281D01*
X121555000Y-41877968D01*
X116035029Y-41877968D01*
X116035301Y-41566401D01*
X115771719Y-40928485D01*
X115284082Y-40439996D01*
X114646627Y-40175301D01*
X113956401Y-40174699D01*
X113318485Y-40438281D01*
X112829996Y-40925918D01*
X112736949Y-41150000D01*
X101772201Y-41150000D01*
X101486120Y-40721848D01*
X100955687Y-40367425D01*
X100330000Y-40242968D01*
X99704313Y-40367425D01*
X99173880Y-40721848D01*
X98819457Y-41252281D01*
X98695000Y-41877968D01*
X98695000Y-41942032D01*
X98819457Y-42567719D01*
X99173880Y-43098152D01*
X99704313Y-43452575D01*
X100330000Y-43577032D01*
X100955687Y-43452575D01*
X101486120Y-43098152D01*
X101772201Y-42670000D01*
X104900498Y-42670000D01*
X101887216Y-45683282D01*
X101794090Y-45538559D01*
X101581890Y-45393569D01*
X101330000Y-45342560D01*
X99330000Y-45342560D01*
X99094683Y-45386838D01*
X98878559Y-45525910D01*
X98733569Y-45738110D01*
X98682560Y-45990000D01*
X98682560Y-46308766D01*
X98467299Y-46452599D01*
X96323898Y-48596000D01*
X91020904Y-48596000D01*
X91132542Y-48484557D01*
X91534542Y-47516433D01*
X91535457Y-46468166D01*
X91135147Y-45499342D01*
X90394557Y-44757458D01*
X89426433Y-44355458D01*
X88378166Y-44354543D01*
X87409342Y-44754853D01*
X86667458Y-45495443D01*
X86265458Y-46463567D01*
X86264543Y-47511834D01*
X86664853Y-48480658D01*
X86779994Y-48596000D01*
X81476102Y-48596000D01*
X79332701Y-46452599D01*
X79117440Y-46308767D01*
X79117440Y-45990000D01*
X79073162Y-45754683D01*
X78934090Y-45538559D01*
X78721890Y-45393569D01*
X78470000Y-45342560D01*
X76470000Y-45342560D01*
X76234683Y-45386838D01*
X76018559Y-45525910D01*
X75873569Y-45738110D01*
X75822560Y-45990000D01*
X75822560Y-46308766D01*
X75607299Y-46452599D01*
X73463898Y-48596000D01*
X68160904Y-48596000D01*
X68272542Y-48484557D01*
X68674542Y-47516433D01*
X68675457Y-46468166D01*
X68275147Y-45499342D01*
X67986310Y-45210000D01*
X83526753Y-45210000D01*
X83618281Y-45431515D01*
X84105918Y-45920004D01*
X84743373Y-46184699D01*
X85433599Y-46185301D01*
X86071515Y-45921719D01*
X86560004Y-45434082D01*
X86824699Y-44796627D01*
X86825301Y-44106401D01*
X86561719Y-43468485D01*
X86074082Y-42979996D01*
X85436627Y-42715301D01*
X84746401Y-42714699D01*
X84108485Y-42978281D01*
X83619996Y-43465918D01*
X83526949Y-43690000D01*
X64559500Y-43690000D01*
X64268661Y-43747852D01*
X64022099Y-43912599D01*
X63925243Y-44009455D01*
X63701719Y-43468485D01*
X63214082Y-42979996D01*
X62576627Y-42715301D01*
X61886401Y-42714699D01*
X61248485Y-42978281D01*
X60759996Y-43465918D01*
X60495301Y-44103373D01*
X60494699Y-44793599D01*
X60627623Y-45115300D01*
X56454993Y-45115300D01*
X56226239Y-44962452D01*
X55935400Y-44904600D01*
X52729800Y-44904600D01*
X52487214Y-44952854D01*
X52451287Y-44960000D01*
X51023398Y-44960000D01*
X51104526Y-44764621D01*
X51105073Y-44138127D01*
X50865829Y-43559113D01*
X50424885Y-43117399D01*
X50459363Y-43018968D01*
X49530000Y-42089605D01*
X48600637Y-43018968D01*
X48635313Y-43117964D01*
X48195728Y-43556783D01*
X47955474Y-44135379D01*
X47954927Y-44761873D01*
X48036792Y-44960000D01*
X40640000Y-44960000D01*
X40349161Y-45017852D01*
X40102599Y-45182599D01*
X35864896Y-49420302D01*
X35865073Y-49218127D01*
X35625829Y-48639113D01*
X35184885Y-48197399D01*
X35219363Y-48098968D01*
X34290000Y-47169605D01*
X33360637Y-48098968D01*
X33395313Y-48197964D01*
X32955728Y-48636783D01*
X32715474Y-49215379D01*
X32714927Y-49841873D01*
X29920000Y-49841873D01*
X29920000Y-46739833D01*
X32703955Y-46739833D01*
X32728951Y-47365828D01*
X32920420Y-47828077D01*
X33181032Y-47919363D01*
X34110395Y-46990000D01*
X34469605Y-46990000D01*
X35398968Y-47919363D01*
X35659580Y-47828077D01*
X35876045Y-47240167D01*
X35851049Y-46614172D01*
X35659580Y-46151923D01*
X35398968Y-46060637D01*
X34469605Y-46990000D01*
X34110395Y-46990000D01*
X33181032Y-46060637D01*
X32920420Y-46151923D01*
X32703955Y-46739833D01*
X29920000Y-46739833D01*
X29920000Y-45558968D01*
X33360637Y-45558968D01*
X33417043Y-45720000D01*
X33360637Y-45881032D01*
X34290000Y-46810395D01*
X35219363Y-45881032D01*
X35162957Y-45720000D01*
X35219363Y-45558968D01*
X34290000Y-44629605D01*
X33360637Y-45558968D01*
X29920000Y-45558968D01*
X29920000Y-44199833D01*
X32703955Y-44199833D01*
X32728951Y-44825828D01*
X32920420Y-45288077D01*
X33181032Y-45379363D01*
X34110395Y-44450000D01*
X34469605Y-44450000D01*
X35398968Y-45379363D01*
X35659580Y-45288077D01*
X35876045Y-44700167D01*
X35851049Y-44074172D01*
X35659580Y-43611923D01*
X35398968Y-43520637D01*
X34469605Y-44450000D01*
X34110395Y-44450000D01*
X33181032Y-43520637D01*
X32920420Y-43611923D01*
X32703955Y-44199833D01*
X29920000Y-44199833D01*
X29920000Y-39681873D01*
X32714927Y-39681873D01*
X32954171Y-40260887D01*
X33332896Y-40640273D01*
X32955728Y-41016783D01*
X32715474Y-41595379D01*
X32714927Y-42221873D01*
X32954171Y-42800887D01*
X33395115Y-43242601D01*
X33360637Y-43341032D01*
X34290000Y-44270395D01*
X35219363Y-43341032D01*
X35184687Y-43242036D01*
X35624272Y-42803217D01*
X35864526Y-42224621D01*
X35865019Y-41659833D01*
X47943955Y-41659833D01*
X47968951Y-42285828D01*
X48160420Y-42748077D01*
X48421032Y-42839363D01*
X49350395Y-41910000D01*
X49709605Y-41910000D01*
X50638968Y-42839363D01*
X50899580Y-42748077D01*
X51116045Y-42160167D01*
X51104777Y-41877968D01*
X52975000Y-41877968D01*
X52975000Y-41942032D01*
X53099457Y-42567719D01*
X53453880Y-43098152D01*
X53984313Y-43452575D01*
X54610000Y-43577032D01*
X55235687Y-43452575D01*
X55766120Y-43098152D01*
X56052201Y-42670000D01*
X67016753Y-42670000D01*
X67108281Y-42891515D01*
X67595918Y-43380004D01*
X68233373Y-43644699D01*
X68923599Y-43645301D01*
X69561515Y-43381719D01*
X70050004Y-42894082D01*
X70314699Y-42256627D01*
X70315029Y-41877968D01*
X75835000Y-41877968D01*
X75835000Y-41942032D01*
X75959457Y-42567719D01*
X76313880Y-43098152D01*
X76844313Y-43452575D01*
X77470000Y-43577032D01*
X78095687Y-43452575D01*
X78626120Y-43098152D01*
X78912201Y-42670000D01*
X89876753Y-42670000D01*
X89968281Y-42891515D01*
X90455918Y-43380004D01*
X91093373Y-43644699D01*
X91783599Y-43645301D01*
X92421515Y-43381719D01*
X92910004Y-42894082D01*
X93174699Y-42256627D01*
X93175301Y-41566401D01*
X92911719Y-40928485D01*
X92424082Y-40439996D01*
X91786627Y-40175301D01*
X91096401Y-40174699D01*
X90458485Y-40438281D01*
X89969996Y-40925918D01*
X89876949Y-41150000D01*
X78912201Y-41150000D01*
X78626120Y-40721848D01*
X78095687Y-40367425D01*
X77470000Y-40242968D01*
X76844313Y-40367425D01*
X76313880Y-40721848D01*
X75959457Y-41252281D01*
X75835000Y-41877968D01*
X70315029Y-41877968D01*
X70315301Y-41566401D01*
X70051719Y-40928485D01*
X69564082Y-40439996D01*
X68926627Y-40175301D01*
X68236401Y-40174699D01*
X67598485Y-40438281D01*
X67109996Y-40925918D01*
X67016949Y-41150000D01*
X56052201Y-41150000D01*
X55766120Y-40721848D01*
X55235687Y-40367425D01*
X54610000Y-40242968D01*
X53984313Y-40367425D01*
X53453880Y-40721848D01*
X53099457Y-41252281D01*
X52975000Y-41877968D01*
X51104777Y-41877968D01*
X51091049Y-41534172D01*
X50899580Y-41071923D01*
X50638968Y-40980637D01*
X49709605Y-41910000D01*
X49350395Y-41910000D01*
X48421032Y-40980637D01*
X48160420Y-41071923D01*
X47943955Y-41659833D01*
X35865019Y-41659833D01*
X35865073Y-41598127D01*
X35625829Y-41019113D01*
X35247104Y-40639727D01*
X35624272Y-40263217D01*
X35864526Y-39684621D01*
X35864528Y-39681873D01*
X47954927Y-39681873D01*
X48194171Y-40260887D01*
X48635115Y-40702601D01*
X48600637Y-40801032D01*
X49530000Y-41730395D01*
X50459363Y-40801032D01*
X50424687Y-40702036D01*
X50864272Y-40263217D01*
X51104526Y-39684621D01*
X51105073Y-39058127D01*
X50865829Y-38479113D01*
X50423217Y-38035728D01*
X49844621Y-37795474D01*
X49218127Y-37794927D01*
X48639113Y-38034171D01*
X48195728Y-38476783D01*
X47955474Y-39055379D01*
X47954927Y-39681873D01*
X35864528Y-39681873D01*
X35865073Y-39058127D01*
X35625829Y-38479113D01*
X35183217Y-38035728D01*
X34604621Y-37795474D01*
X33978127Y-37794927D01*
X33399113Y-38034171D01*
X32955728Y-38476783D01*
X32715474Y-39055379D01*
X32714927Y-39681873D01*
X29920000Y-39681873D01*
X29920000Y-36270000D01*
X145340000Y-36270000D01*
X145340000Y-103430000D01*
M02*
