M48
;DRILL file {KiCad 4.0.5+dfsg1-4} date Fri Jun 28 09:22:03 2019
;FORMAT={-:-/ absolute / inch / decimal}
FMAT,2
INCH,TZ
T1C0.039
T2C0.040
T3C0.059
%
G90
G05
M72
T1
X1.5Y-3.
X1.7Y-3.
X2.15Y-1.65
X2.15Y-1.85
X2.15Y-2.55
X2.15Y-2.75
X2.15Y-3.45
X2.15Y-3.65
X3.05Y-1.65
X3.05Y-1.85
X3.05Y-2.55
X3.05Y-2.75
X3.05Y-3.45
X3.05Y-3.65
X3.95Y-1.65
X3.95Y-1.85
X3.95Y-2.55
X3.95Y-2.75
X3.95Y-3.45
X3.95Y-3.65
X4.85Y-1.65
X4.85Y-1.85
X4.85Y-2.55
X4.85Y-2.75
X4.85Y-3.45
X4.85Y-3.65
T2
X1.35Y-1.55
X1.35Y-1.65
X1.35Y-1.75
X1.35Y-1.85
X1.35Y-1.95
X1.35Y-2.05
X1.35Y-2.15
X1.35Y-2.25
X1.35Y-2.35
X1.35Y-2.45
X1.35Y-2.55
X1.35Y-2.65
X1.95Y-1.55
X1.95Y-1.65
X1.95Y-1.75
X1.95Y-1.85
X1.95Y-1.95
X1.95Y-2.05
X1.95Y-2.15
X1.95Y-2.25
X1.95Y-2.35
X1.95Y-2.45
X1.95Y-2.55
X1.95Y-2.65
T3
X1.45Y-3.55
X1.7Y-3.45
X2.45Y-1.75
X2.45Y-2.65
X2.45Y-3.55
X2.7Y-1.65
X2.7Y-2.55
X2.7Y-3.45
X3.35Y-1.75
X3.35Y-2.65
X3.35Y-3.55
X3.6Y-1.65
X3.6Y-2.55
X3.6Y-3.45
X4.25Y-1.75
X4.25Y-2.65
X4.25Y-3.55
X4.5Y-1.65
X4.5Y-2.55
X4.5Y-3.45
X5.15Y-1.75
X5.15Y-2.65
X5.15Y-3.55
X5.4Y-1.65
X5.4Y-2.55
X5.4Y-3.45
T0
M30
