G04 #@! TF.FileFunction,Soldermask,Top*
%FSLAX46Y46*%
G04 Gerber Fmt 4.6, Leading zero omitted, Abs format (unit mm)*
G04 Created by KiCad (PCBNEW 4.0.5+dfsg1-4) date Fri Jun 28 09:21:59 2019*
%MOMM*%
%LPD*%
G01*
G04 APERTURE LIST*
%ADD10C,0.100000*%
%ADD11R,2.400000X2.400000*%
%ADD12O,2.400000X2.400000*%
%ADD13C,2.600000*%
%ADD14C,4.400000*%
%ADD15C,2.082800*%
G04 APERTURE END LIST*
D10*
D11*
X54610000Y-46990000D03*
D12*
X54610000Y-41910000D03*
D11*
X54610000Y-69850000D03*
D12*
X54610000Y-64770000D03*
D11*
X54610000Y-92710000D03*
D12*
X54610000Y-87630000D03*
D11*
X77470000Y-46990000D03*
D12*
X77470000Y-41910000D03*
D11*
X77470000Y-69850000D03*
D12*
X77470000Y-64770000D03*
D11*
X77470000Y-92710000D03*
D12*
X77470000Y-87630000D03*
D11*
X100330000Y-46990000D03*
D12*
X100330000Y-41910000D03*
D11*
X100330000Y-69850000D03*
D12*
X100330000Y-64770000D03*
D11*
X100330000Y-92710000D03*
D12*
X100330000Y-87630000D03*
D11*
X123190000Y-46990000D03*
D12*
X123190000Y-41910000D03*
D11*
X123190000Y-69850000D03*
D12*
X123190000Y-64770000D03*
D11*
X123190000Y-92710000D03*
D12*
X123190000Y-87630000D03*
D11*
X38100000Y-76200000D03*
D12*
X43180000Y-76200000D03*
D13*
X68580000Y-41910000D03*
X62230000Y-44450000D03*
D14*
X66040000Y-46990000D03*
D13*
X68580000Y-64770000D03*
X62230000Y-67310000D03*
D14*
X66040000Y-69850000D03*
D13*
X68580000Y-87630000D03*
X62230000Y-90170000D03*
D14*
X66040000Y-92710000D03*
D13*
X91440000Y-41910000D03*
X85090000Y-44450000D03*
D14*
X88900000Y-46990000D03*
D13*
X91440000Y-64770000D03*
X85090000Y-67310000D03*
D14*
X88900000Y-69850000D03*
D13*
X91440000Y-87630000D03*
X85090000Y-90170000D03*
D14*
X88900000Y-92710000D03*
D13*
X114300000Y-41910000D03*
X107950000Y-44450000D03*
D14*
X111760000Y-46990000D03*
D13*
X114300000Y-64770000D03*
X107950000Y-67310000D03*
D14*
X111760000Y-69850000D03*
D13*
X114300000Y-87630000D03*
X107950000Y-90170000D03*
D14*
X111760000Y-92710000D03*
D13*
X137160000Y-41910000D03*
X130810000Y-44450000D03*
D14*
X134620000Y-46990000D03*
D13*
X137160000Y-64770000D03*
X130810000Y-67310000D03*
D14*
X134620000Y-69850000D03*
D13*
X137160000Y-87630000D03*
X130810000Y-90170000D03*
D14*
X134620000Y-92710000D03*
D13*
X43180000Y-87630000D03*
X36830000Y-90170000D03*
D14*
X40640000Y-92710000D03*
D15*
X34290000Y-39370000D03*
X34290000Y-41910000D03*
X34290000Y-44450000D03*
X34290000Y-46990000D03*
X34290000Y-49530000D03*
X34290000Y-52070000D03*
X34290000Y-54610000D03*
X34290000Y-57150000D03*
X34290000Y-59690000D03*
X34290000Y-62230000D03*
X34290000Y-64770000D03*
X34290000Y-67310000D03*
X49530000Y-67310000D03*
X49530000Y-64770000D03*
X49530000Y-62230000D03*
X49530000Y-59690000D03*
X49530000Y-57150000D03*
X49530000Y-54610000D03*
X49530000Y-52070000D03*
X49530000Y-49530000D03*
X49530000Y-46990000D03*
X49530000Y-44450000D03*
X49530000Y-41910000D03*
X49530000Y-39370000D03*
M02*
